<?xml version="1.0" encoding="UTF-8"?>
<svg version="1.1" xmlns="http://www.w3.org/2000/svg" width="684" height="255">
<path d="M0 0 C1.02003616 -0.00540298 2.04007233 -0.01080597 3.09101868 -0.01637268 C6.45859899 -0.02886811 9.82532593 -0.01236514 13.19287109 0.00561523 C15.53266444 0.00546029 17.87245804 0.00397208 20.21224976 0.00120544 C25.11313233 -0.00017884 30.01372235 0.01238674 34.91455078 0.03515625 C41.20420861 0.063572 47.49338143 0.06079529 53.78307533 0.04806614 C58.61284548 0.0411208 63.44250299 0.04888466 68.27225876 0.06132317 C70.59195906 0.06584658 72.91167141 0.06616673 75.23137283 0.06225777 C78.4683042 0.05935603 81.70456011 0.07580224 84.94140625 0.09765625 C85.90459274 0.0931546 86.86777924 0.08865295 87.8601532 0.08401489 C88.74053757 0.09391953 89.62092194 0.10382416 90.52798462 0.11402893 C91.29303125 0.11645883 92.05807789 0.11888872 92.84630775 0.12139225 C95.39876832 0.60798025 96.29207159 1.44453001 97.84130859 3.50170898 C98.13427734 6.41967773 98.13427734 6.41967773 98.02880859 9.68920898 C97.98820312 11.31922852 97.98820312 11.31922852 97.94677734 12.98217773 C97.91197266 13.81362305 97.87716797 14.64506836 97.84130859 15.50170898 C98.64568359 15.62545898 99.45005859 15.74920898 100.27880859 15.87670898 C101.45443359 16.08295898 102.63005859 16.28920898 103.84130859 16.50170898 C104.47166016 16.57776367 105.10201172 16.65381836 105.75146484 16.73217773 C117.23638192 18.55688419 129.38498444 26.57931643 136.51318359 35.62280273 C140.00760908 40.61360349 142.66076537 45.82260531 144.84130859 51.50170898 C145.29183594 52.60385742 145.29183594 52.60385742 145.75146484 53.72827148 C150.16785813 66.01200724 148.61529047 79.58775422 143.84130859 91.50170898 C136.0225155 107.4611341 125.7691154 115.89452868 109.45458984 122.33764648 C100.76122841 125.1383186 91.85691055 124.69294903 82.84130859 124.50170898 C81.54580078 124.47657227 81.54580078 124.47657227 80.22412109 124.45092773 C66.17930308 123.55061889 53.9498483 114.59443413 44.84130859 104.50170898 C44.29474609 103.9203418 43.74818359 103.33897461 43.18505859 102.73999023 C36.29027236 94.63158091 33.3906649 82.93947887 32.84130859 72.50170898 C27.39630859 72.00670898 27.39630859 72.00670898 21.84130859 71.50170898 C21.87683838 72.84354248 21.91236816 74.18537598 21.94897461 75.56787109 C23.11413148 120.57101159 23.11413148 120.57101159 22.59130859 140.93920898 C22.57842804 141.62707489 22.56554749 142.3149408 22.55227661 143.02365112 C22.51363082 144.93209426 22.4515963 146.84002195 22.38818359 148.74780273 C22.35563477 149.79637451 22.32308594 150.84494629 22.28955078 151.92529297 C21.84130859 154.50170898 21.84130859 154.50170898 20.65185547 156.34082031 C18.13039742 157.95753189 16.30835943 157.85807349 13.32568359 157.82983398 C12.23900391 157.82467773 11.15232422 157.81952148 10.03271484 157.81420898 C8.89705078 157.79358398 7.76138672 157.77295898 6.59130859 157.75170898 C5.47111328 157.74655273 4.35091797 157.74139648 3.19677734 157.73608398 C-12.06849847 157.59190192 -12.06849847 157.59190192 -15.15869141 154.50170898 C-15.44580078 151.60009766 -15.44580078 151.60009766 -15.50244141 147.91967773 C-15.51706421 147.26848465 -15.53168701 146.61729156 -15.54675293 145.94636536 C-15.59329599 143.86070921 -15.6274468 141.77514705 -15.65869141 139.68920898 C-15.69998745 136.95318758 -15.75378105 134.21781907 -15.81494141 131.48217773 C-15.83363281 130.26425537 -15.85232422 129.04633301 -15.87158203 127.79150391 C-16.14874296 124.61570158 -16.80145484 122.36416424 -18.15869141 119.50170898 C-19.10744141 119.95545898 -20.05619141 120.40920898 -21.03369141 120.87670898 C-34.25580516 126.46762281 -48.82914949 125.56903994 -62.15869141 120.87670898 C-75.78601186 114.99992704 -85.57898064 101.98601001 -91.15869141 88.50170898 C-95.28257522 74.91095322 -95.34593763 57.45512506 -89.15869141 44.50170898 C-82.34810804 31.91342692 -71.81685445 21.85282866 -58.23291016 16.78295898 C-42.20966095 12.27123664 -28.79640766 15.76371261 -14.15869141 22.50170898 C-13.16869141 18.04670898 -13.16869141 18.04670898 -12.15869141 13.50170898 C-12.81869141 13.50170898 -13.47869141 13.50170898 -14.15869141 13.50170898 C-14.46295701 12.0918446 -14.72590048 10.67302088 -14.97119141 9.25170898 C-15.12201172 8.46280273 -15.27283203 7.67389648 -15.42822266 6.86108398 C-15.15869141 4.50170898 -15.15869141 4.50170898 -13.27676392 2.38560486 C-8.83812517 -0.2961587 -5.09460273 -0.05135284 0 0 Z M20.84130859 16.50170898 C21.17130859 20.46170898 21.50130859 24.42170898 21.84130859 28.50170898 C22.17130859 28.50170898 22.50130859 28.50170898 22.84130859 28.50170898 C22.84130859 26.19170898 22.84130859 23.88170898 22.84130859 21.50170898 C23.83130859 21.50170898 24.82130859 21.50170898 25.84130859 21.50170898 C26.83130859 19.52170898 27.82130859 17.54170898 28.84130859 15.50170898 C24.6632079 14.31239712 24.6632079 14.31239712 20.84130859 16.50170898 Z M-53.15869141 53.50170898 C-57.73651238 59.90191092 -58.69070679 67.27977341 -57.90478516 74.99389648 C-56.42784564 82.89751878 -52.46659179 87.7707837 -46.15869141 92.50170898 C-40.98538382 95.71815675 -35.02486708 95.04968707 -29.15869141 94.50170898 C-23.23591898 92.98991893 -19.72184522 89.54903921 -16.34619141 84.56811523 C-12.43743792 77.76636985 -12.1394551 70.19148616 -13.77587891 62.66186523 C-16.26213674 54.64203356 -20.45485052 50.34877057 -27.53369141 46.06420898 C-37.61425498 43.90408822 -45.77627313 46.11929071 -53.15869141 53.50170898 Z M72.47021484 52.68530273 C69.46473527 56.03673679 68.84130859 57.93594059 68.84130859 62.50170898 C74.45130859 62.50170898 80.06130859 62.50170898 85.84130859 62.50170898 C85.84130859 65.14170898 85.84130859 67.78170898 85.84130859 70.50170898 C70.66130859 70.50170898 55.48130859 70.50170898 39.84130859 70.50170898 C39.51130859 72.81170898 39.18130859 75.12170898 38.84130859 77.50170898 C48.41130859 77.50170898 57.98130859 77.50170898 67.84130859 77.50170898 C68.50130859 79.48170898 69.16130859 81.46170898 69.84130859 83.50170898 C72.35926551 88.44002759 75.51505976 91.56810752 80.60693359 93.77905273 C87.16182422 95.89907855 93.27114465 96.16709612 99.73583984 93.63842773 C105.2481888 90.66237292 109.53441009 86.02448149 111.39990234 79.99389648 C112.97999474 71.07266687 113.02560249 62.45074312 108.31787109 54.52124023 C104.08215206 48.72794198 98.78497791 46.05456594 91.84130859 44.50170898 C83.80678506 44.50170898 78.36231027 47.36456202 72.47021484 52.68530273 Z " fill="#0D6CB5" transform="translate(536.15869140625,81.498291015625)"/>
<path d="M0 0 C1.16080078 0.05220703 2.32160156 0.10441406 3.51757812 0.15820312 C6.36620617 0.28715337 9.21441787 0.42208589 12.0625 0.5625 C13.94874671 3.77904702 14.35297742 6.27682261 14.4765625 9.984375 C14.53457031 11.52158203 14.53457031 11.52158203 14.59375 13.08984375 C14.6246875 14.15332031 14.655625 15.21679688 14.6875 16.3125 C14.74550781 17.93091797 14.74550781 17.93091797 14.8046875 19.58203125 C14.89884631 22.24201775 14.98447387 24.9019994 15.0625 27.5625 C16.04645752 27.58437378 16.04645752 27.58437378 17.05029297 27.60668945 C20.01330031 27.68101414 22.97516117 27.77772369 25.9375 27.875 C26.97003906 27.89755859 28.00257813 27.92011719 29.06640625 27.94335938 C30.05253906 27.97880859 31.03867187 28.01425781 32.0546875 28.05078125 C32.96589355 28.07696533 33.87709961 28.10314941 34.81591797 28.13012695 C35.55729004 28.27281006 36.29866211 28.41549316 37.0625 28.5625 C39.17077055 31.72490582 39.40067465 33.06907469 39.6875 36.75 C39.79964844 38.10158203 39.79964844 38.10158203 39.9140625 39.48046875 C39.96304688 40.16753906 40.01203125 40.85460937 40.0625 41.5625 C40.50207031 41.06105469 40.94164062 40.55960938 41.39453125 40.04296875 C42.22017578 39.31013672 42.22017578 39.31013672 43.0625 38.5625 C45.75 38.875 45.75 38.875 48.0625 39.5625 C48.0625 40.2225 48.0625 40.8825 48.0625 41.5625 C48.7225 41.5625 49.3825 41.5625 50.0625 41.5625 C50.01029297 40.44101563 50.01029297 40.44101563 49.95703125 39.296875 C49.92996094 38.31203125 49.90289062 37.3271875 49.875 36.3125 C49.84019531 35.33796875 49.80539062 34.3634375 49.76953125 33.359375 C50.11204489 30.08951149 50.68190409 28.81399634 53.0625 26.5625 C57.13601273 25.1950664 61.427206 25.40862524 65.6875 25.4375 C66.38955566 25.44015869 67.09161133 25.44281738 67.81494141 25.44555664 C83.10444586 25.58347293 83.10444586 25.58347293 87.0625 27.5625 C88.12466233 30.59956705 88.23668006 33.57671622 88.34375 36.7734375 C88.39982422 38.27003906 88.39982422 38.27003906 88.45703125 39.796875 C88.50923828 41.35148437 88.50923828 41.35148437 88.5625 42.9375 C88.63184747 44.98710304 88.70466364 47.03659218 88.78125 49.0859375 C88.81154297 49.99263184 88.84183594 50.89932617 88.87304688 51.83349609 C89.0150666 54.59238766 89.0150666 54.59238766 89.57177734 57.39575195 C90.15811546 61.17952895 90.20592406 64.88932281 90.1953125 68.70703125 C90.19626923 69.47625412 90.19722595 70.24547699 90.19821167 71.03800964 C90.19888934 72.65921104 90.19706398 74.28041521 90.19287109 75.90161133 C90.18753909 78.35699711 90.19281876 80.81219814 90.19921875 83.26757812 C90.19855747 84.8515629 90.19727527 86.43554756 90.1953125 88.01953125 C90.19733673 88.74171341 90.19936096 89.46389557 90.20144653 90.20796204 C90.18132416 94.68101045 89.85394842 99.03551137 89.28955078 103.47332764 C88.9084693 106.97978949 88.91742386 110.47663811 88.9375 114 C88.93363281 114.70576172 88.92976563 115.41152344 88.92578125 116.13867188 C88.87070451 119.97755017 88.87070451 119.97755017 90.0625 123.5625 C87.88593838 129.97762897 87.88593838 129.97762897 85.34765625 131.78051758 C82.33783263 132.81048179 79.86455685 132.70394554 76.6875 132.57421875 C75.45515625 132.52716797 74.2228125 132.48011719 72.953125 132.43164062 C71.02726562 132.34172852 71.02726562 132.34172852 69.0625 132.25 C67.13664062 132.17749023 67.13664062 132.17749023 65.171875 132.10351562 C55.65343045 131.71023261 55.65343045 131.71023261 51.0625 130.5625 C51.0625 127.2625 51.0625 123.9625 51.0625 120.5625 C48.08029872 121.11089062 48.08029872 121.11089062 45.0625 122.5625 C44.64677734 124.01849609 44.64677734 124.01849609 44.22265625 125.50390625 C43.0625 128.5625 43.0625 128.5625 40.48828125 129.98828125 C39.46089844 130.28089844 38.43351562 130.57351562 37.375 130.875 C35.74498047 131.34099609 35.74498047 131.34099609 34.08203125 131.81640625 C26.68931895 133.64306608 19.64034843 133.75705323 12.0625 133.5625 C10.78826172 133.55476563 10.78826172 133.55476563 9.48828125 133.546875 C0.52746693 133.14284472 -7.84266411 129.30437751 -13.9375 122.6875 C-24.16057355 109.50446111 -23.21612095 94.234007 -23.0625 78.3125 C-23.05244655 76.48828618 -23.0433249 74.66406698 -23.03515625 72.83984375 C-23.01333828 68.41392721 -22.97893984 63.98827453 -22.9375 59.5625 C-26.39874302 58.37761257 -29.53487734 57.35010808 -33.1875 57.0625 C-36.9375 56.5625 -36.9375 56.5625 -38.9375 54.5625 C-39.19628906 52.59472656 -39.19628906 52.59472656 -39.203125 50.203125 C-39.20570313 49.33429688 -39.20828125 48.46546875 -39.2109375 47.5703125 C-39.19933594 46.20519531 -39.19933594 46.20519531 -39.1875 44.8125 C-39.19910156 43.47058594 -39.19910156 43.47058594 -39.2109375 42.1015625 C-39.17760725 30.80260725 -39.17760725 30.80260725 -35.9375 27.5625 C-34.08462498 27.49023498 -32.22916122 27.4786878 -30.375 27.5 C-29.36308594 27.50902344 -28.35117187 27.51804687 -27.30859375 27.52734375 C-26.13490234 27.54474609 -26.13490234 27.54474609 -24.9375 27.5625 C-23.15861294 24.48495438 -22.67193587 22.18769612 -22.59375 18.6484375 C-22.54927734 17.26011719 -22.54927734 17.26011719 -22.50390625 15.84375 C-22.459457 13.89844157 -22.41518759 11.95312902 -22.37109375 10.0078125 C-22.34144531 9.08484375 -22.31179688 8.161875 -22.28125 7.2109375 C-22.26255859 6.36708496 -22.24386719 5.52323242 -22.22460938 4.65380859 C-21.9375 2.5625 -21.9375 2.5625 -19.9375 0.5625 C-13.35111524 -0.96305653 -6.70399107 -0.33157886 0 0 Z " fill="#0A7FD1" transform="translate(343.9375,72.4375)"/>
<path d="M0 0 C9.20190817 7.18039935 15.7134788 22.40952489 17.625 33.6875 C19.14906151 48.09680879 19.14906151 48.09680879 16 54 C12.875 54.8125 12.875 54.8125 10 55 C10 56.65 10 58.3 10 60 C10.66 60 11.32 60 12 60 C11.875 61.875 11.875 61.875 11 64 C9 64.66666667 7 65.33333333 5 66 C3.65266977 67.71972643 3.65266977 67.71972643 4 70 C4.99 71.4540625 4.99 71.4540625 6 72.9375 C8 76 8 76 8 78.75 C7 81 7 81 4.9375 82.3125 C4.298125 82.539375 3.65875 82.76625 3 83 C3 83.66 3 84.32 3 85 C0.51639252 86.94196968 -2.26593104 88.43767488 -5 90 C-5.63550781 90.36609375 -6.27101563 90.7321875 -6.92578125 91.109375 C-17.9467818 97.04200469 -28.63215097 97.47327699 -40.87060547 97.06054688 C-42.59143294 97.01161713 -44.31383856 97.02029094 -46.03515625 97.046875 C-57.04604219 96.84265455 -70.66147554 90.61591548 -78.40625 82.8359375 C-78.9321875 82.23007813 -79.458125 81.62421875 -80 81 C-80.6084375 80.31164062 -81.216875 79.62328125 -81.84375 78.9140625 C-86.14830005 73.71577113 -89.33752442 68.19116753 -92 62 C-92.52980469 60.80503906 -93.05960938 59.61007813 -93.60546875 58.37890625 C-98.12511655 46.06293802 -96.16117199 30.14624134 -90.79296875 18.41796875 C-88.2942642 13.65464309 -85.68810764 8.95425974 -82 5 C-81.34 5 -80.68 5 -80 5 C-80 4.34 -80 3.68 -80 3 C-56.64057633 -17.83035221 -25.14722463 -15.99470118 0 0 Z M-48 16 C-49.32355844 17.09914054 -49.32355844 17.09914054 -49.1328125 19.8359375 C-49.13023437 21.00382812 -49.12765625 22.17171875 -49.125 23.375 C-49.12757813 24.53773438 -49.13015625 25.70046875 -49.1328125 26.8984375 C-49.14106843 30.03571423 -49.14106843 30.03571423 -48 33 C-37.77 33 -27.54 33 -17 33 C-18.1544454 26.0733276 -20.41423688 21.45431676 -26.0390625 17.04296875 C-32.98998767 13.34596273 -40.76869265 13.40764453 -48 16 Z M-55.5 22.25 C-58.47295141 25.52024655 -59.92375112 27.32252456 -60.125 31.75 C-60.08375 32.4925 -60.0425 33.235 -60 34 C-55.545 33.505 -55.545 33.505 -51 33 C-49.93328048 29.79984144 -50.05154528 28.11455706 -50.4375 24.8125 C-50.53933594 23.91144531 -50.64117187 23.01039063 -50.74609375 22.08203125 C-50.82988281 21.39496094 -50.91367188 20.70789063 -51 20 C-53.31280295 19.77701176 -53.31280295 19.77701176 -55.5 22.25 Z M-60 54 C-57.71561669 59.85373224 -54.23947622 63.6558327 -49 67 C-40.56515482 70.4420747 -31.61880449 71.30031593 -23.08984375 67.80859375 C-20.6843168 66.62105513 -18.33544734 65.32003545 -16 64 C-16.66 60.37 -17.32 56.74 -18 53 C-23.23273809 52.85724064 -28.46548558 52.71483282 -33.69824219 52.57275391 C-35.47916931 52.52434855 -37.26009381 52.47584634 -39.04101562 52.42724609 C-41.59764943 52.35749384 -44.15429242 52.28808744 -46.7109375 52.21875 C-47.50994476 52.19687622 -48.30895203 52.17500244 -49.13217163 52.15246582 C-54.93054162 51.73385306 -54.93054162 51.73385306 -60 54 Z " fill="#0A86E9" transform="translate(234,109)"/>
<path d="M0 0 C1.1309709 3.3929127 0.89601128 3.99097328 -0.29296875 7.2109375 C-0.74144165 8.45182129 -0.74144165 8.45182129 -1.19897461 9.71777344 C-1.52518799 10.5946582 -1.85140137 11.47154297 -2.1875 12.375 C-2.84046225 14.17899349 -3.49150197 15.983684 -4.140625 17.7890625 C-4.45966797 18.67368164 -4.77871094 19.55830078 -5.10742188 20.46972656 C-6.91427107 25.59176844 -8.46917494 30.78948985 -10 36 C-10.66 36 -11.32 36 -12 36 C-12.12246094 36.98484375 -12.24492187 37.9696875 -12.37109375 38.984375 C-12.96687093 43.15796752 -13.98749382 47.17789177 -15.0625 51.25 C-16.50804963 56.54866188 -16.50804963 56.54866188 -17 62 C-16.19256348 62.01981934 -15.38512695 62.03963867 -14.55322266 62.06005859 C-10.91014125 62.15505899 -7.26765314 62.26483912 -3.625 62.375 C-2.35398437 62.4059375 -1.08296875 62.436875 0.2265625 62.46875 C1.43828125 62.50742187 2.65 62.54609375 3.8984375 62.5859375 C5.01911621 62.6173584 6.13979492 62.6487793 7.29443359 62.68115234 C10 63 10 63 12 65 C11.60881494 69.15022184 9.96362942 72.75936135 8.33984375 76.56640625 C8.07431198 77.19344955 7.80878021 77.82049286 7.53520203 78.46653748 C6.67333992 80.50026633 5.80536959 82.53132854 4.9375 84.5625 C3.74341272 87.37517002 2.55292004 90.1893522 1.36328125 93.00390625 C1.06999939 93.69690826 0.77671753 94.38991028 0.47454834 95.10391235 C-1.88985645 100.70453271 -4.1541771 106.34092196 -6.375 112 C-9.06163491 118.81396915 -12.0078905 125.43532006 -15.15625 132.046875 C-21.40147154 145.28729009 -26.82755122 158.91745515 -32.21484375 172.5234375 C-33.69909955 176.26593304 -35.24066707 179.98078952 -36.8125 183.6875 C-38.52498455 187.74820751 -39.96709124 191.83065075 -41.31640625 196.0234375 C-43.88172043 203.44086022 -43.88172043 203.44086022 -47 205 C-49.20780389 204.94438921 -51.41405637 204.82192915 -53.6171875 204.66796875 C-54.95954657 204.59024691 -56.30199906 204.51412499 -57.64453125 204.43945312 C-59.76151925 204.31785774 -61.87610912 204.18741719 -63.99072266 204.02954102 C-66.03226858 203.88058395 -68.07287867 203.77106835 -70.1171875 203.66796875 C-71.95192627 203.54844849 -71.95192627 203.54844849 -73.82373047 203.42651367 C-77.26087984 203.69321394 -77.26087984 203.69321394 -79.33251953 206.83764648 C-79.88278809 207.88122314 -80.43305664 208.9247998 -81 210 C-81.515625 210.96679688 -82.03125 211.93359375 -82.5625 212.9296875 C-83.036875 213.90164062 -83.51125 214.87359375 -84 215.875 C-85.65243734 219.25027928 -87.31726279 222.60953754 -89.0625 225.9375 C-90.76982193 229.33097871 -92.10176321 232.81994897 -93.4375 236.375 C-95.02005188 240.53222345 -96.63514771 244.64796102 -98.5 248.6875 C-98.8609375 249.47511719 -99.221875 250.26273438 -99.59375 251.07421875 C-101.39691556 253.54355381 -103.12669914 254.1044879 -106 255 C-106.28173957 250.19597918 -105.44313149 246.9710264 -103.5625 242.5625 C-103.01176339 241.24140892 -102.46237594 239.9197549 -101.9140625 238.59765625 C-101.45821777 237.50928467 -101.45821777 237.50928467 -100.99316406 236.39892578 C-99.08446941 231.78859303 -97.26110057 227.14451233 -95.4375 222.5 C-94.85536743 221.01790039 -94.85536743 221.01790039 -94.26147461 219.50585938 C-91.65482433 212.81492121 -89.25097574 206.0947276 -87.0703125 199.25390625 C-84.52970685 191.53009417 -81.35042367 184.18306585 -77.9609375 176.79882812 C-75.90802293 172.25812587 -74.18116612 167.7192087 -72.65673828 162.9753418 C-71.66021838 159.97800258 -70.32228099 157.1816493 -68.96484375 154.3359375 C-67.89468642 151.89146022 -67.89468642 151.89146022 -67.14379883 148.76318359 C-66.00882704 145.02904162 -64.55197979 141.89974407 -62.734375 138.453125 C-59.09753953 131.39413742 -56.12555606 124.15250429 -53.25 116.75 C-52.20598194 114.09600604 -51.15621947 111.4443034 -50.10546875 108.79296875 C-49.84406601 108.13231918 -49.58266327 107.47166962 -49.31333923 106.79100037 C-45.53934803 97.28045446 -41.48904653 87.88631069 -37.47558594 78.47509766 C-34.41500162 71.26722915 -31.39958078 64.04028095 -28.37869263 56.81570435 C-25.07506357 48.91581075 -21.73777878 41.03206217 -18.33911133 33.17260742 C-16.99623973 29.99109121 -15.73482545 26.78731828 -14.5 23.5625 C-13.89478516 21.99242187 -13.89478516 21.99242187 -13.27734375 20.390625 C-12.34218989 17.90832057 -11.44409093 15.42418509 -10.56640625 12.921875 C-10.06549069 11.55194194 -9.56419524 10.18214772 -9.0625 8.8125 C-8.8459375 8.16418213 -8.629375 7.51586426 -8.40625 6.84790039 C-7.72265625 5.01953125 -7.72265625 5.01953125 -6 2 C-2.80859375 0.57421875 -2.80859375 0.57421875 0 0 Z " fill="#0985F4" transform="translate(141,0)"/>
<path d="M0 0 C1.09957031 0.05220703 2.19914062 0.10441406 3.33203125 0.15820312 C6.01341122 0.28644304 8.69427531 0.42132498 11.375 0.5625 C13.52876447 4.97733393 13.80162968 9.23715135 14.0078125 14.0625 C14.07035973 15.30003777 14.07035973 15.30003777 14.13417053 16.56257629 C14.2656834 19.22886 14.38361785 21.89551622 14.5 24.5625 C14.584939 26.38501458 14.66998142 28.20752435 14.75512695 30.0300293 C15.18307237 39.47549819 15.55377612 48.91831239 15.5625 58.375 C15.56330566 59.19548828 15.56411133 60.01597656 15.56494141 60.86132812 C15.53364879 64.02396882 15.38219548 66.54091357 14.375 69.5625 C14.26192098 71.80541243 14.20840397 74.05147433 14.18554688 76.29711914 C14.17725357 76.97709457 14.16896027 77.65707001 14.16041565 78.35765076 C14.14303378 79.83250176 14.12786188 81.30738009 14.11463928 82.78227425 C14.09359822 85.1144796 14.06657803 87.44654733 14.03796387 89.77867126 C13.96815734 95.56927648 13.90869091 101.3599797 13.84893799 107.1506958 C13.79804151 112.0461304 13.74323269 116.94149022 13.68312073 121.8368206 C13.65650693 124.13794115 13.63571848 126.43906856 13.6151123 128.74024963 C13.59851316 130.14592831 13.58164166 131.5516038 13.56445312 132.95727539 C13.54566101 134.80235435 13.54566101 134.80235435 13.52648926 136.68470764 C13.375 139.5625 13.375 139.5625 12.375 141.5625 C10.16015625 142.23046875 10.16015625 142.23046875 7.4375 142.75 C6.54160156 142.92917969 5.64570313 143.10835937 4.72265625 143.29296875 C2.375 143.5625 2.375 143.5625 0.375 142.5625 C-1.35086779 142.35350182 -3.08296166 142.19467312 -4.81640625 142.0625 C-5.84314453 141.98 -6.86988281 141.8975 -7.92773438 141.8125 C-10.10479489 141.6455355 -12.28187834 141.47886989 -14.45898438 141.3125 C-15.48443359 141.23 -16.50988281 141.1475 -17.56640625 141.0625 C-18.51201416 140.9903125 -19.45762207 140.918125 -20.43188477 140.84375 C-22.625 140.5625 -22.625 140.5625 -23.625 139.5625 C-23.7235491 137.78054128 -23.751321 135.99464252 -23.75198364 134.20996094 C-23.75480347 133.04887817 -23.75762329 131.88779541 -23.76052856 130.69152832 C-23.75850433 129.40629272 -23.7564801 128.12105713 -23.75439453 126.796875 C-23.75574856 125.43876091 -23.7575285 124.0806472 -23.75970459 122.72253418 C-23.76427877 119.02428799 -23.76248943 115.32606958 -23.7593255 111.62782288 C-23.75680182 107.76587853 -23.75913946 103.90393663 -23.76071167 100.04199219 C-23.76253334 93.55533418 -23.76012712 87.06868754 -23.75537109 80.58203125 C-23.74992848 73.07200077 -23.75169113 65.56199744 -23.7571975 58.05196762 C-23.7617287 51.6154647 -23.76237915 45.17896997 -23.75975883 38.74246597 C-23.75819609 34.89320684 -23.7580022 31.04396048 -23.76129532 27.19470215 C-23.76417413 23.57669294 -23.76219816 19.95871889 -23.75640106 16.3407135 C-23.75443791 14.37163339 -23.75742729 12.40255033 -23.76052856 10.43347168 C-23.75629883 8.69184753 -23.75629883 8.69184753 -23.75198364 6.91503906 C-23.75160662 5.89960022 -23.75122959 4.88416138 -23.75084114 3.83795166 C-23.625 1.5625 -23.625 1.5625 -22.625 0.5625 C-15.11532191 -0.79067588 -7.57673227 -0.40047127 0 0 Z " fill="#0984DD" transform="translate(284.625,62.4375)"/>
<path d="M0 0 C5.64160136 -0.12351098 11.28241776 -0.2142963 16.92504883 -0.2746582 C18.8447846 -0.2998175 20.76442444 -0.33394885 22.68383789 -0.37719727 C25.44180946 -0.43778853 28.19851609 -0.46619452 30.95703125 -0.48828125 C31.81649857 -0.51408768 32.67596588 -0.5398941 33.56147766 -0.56648254 C35.8128927 -0.56754457 37.80864175 -0.5162883 40 0 C41.94775391 2.21606445 41.94775391 2.21606445 43 5 C43.49222046 6.21526367 43.49222046 6.21526367 43.99438477 7.45507812 C44.4322229 8.7302832 44.4322229 8.7302832 44.87890625 10.03125 C47.07364691 16.25367862 49.48399956 22.37564208 51.9375 28.5 C52.35451172 29.55058594 52.77152344 30.60117188 53.20117188 31.68359375 C55.56620918 37.59801471 58.06262058 43.42360956 60.72583008 49.20947266 C63.02707736 54.24937617 65.2083605 59.33859032 67.375 64.4375 C67.83777344 65.49904297 68.30054687 66.56058594 68.77734375 67.65429688 C69.42509766 69.18473633 69.42509766 69.18473633 70.0859375 70.74609375 C70.4782959 71.66060303 70.8706543 72.5751123 71.27490234 73.51733398 C72.46748562 77.6006267 70.92565326 80.35767133 69.1875 84.0625 C67.13673938 88.56070121 65.45873533 93.14625722 63.83203125 97.8125 C63 100 63 100 62 101 C61.76807135 102.51469448 61.58784762 104.03754562 61.4375 105.5625 C61.35371094 106.38878906 61.26992188 107.21507812 61.18359375 108.06640625 C61.12300781 108.70449219 61.06242187 109.34257812 61 110 C60.01 110 59.02 110 58 110 C57.855625 111.258125 57.71125 112.51625 57.5625 113.8125 C57.26251314 116.42667123 56.84186703 118.47439892 56 121 C52.9375 122.1875 52.9375 122.1875 50 123 C46.77384481 120.3553581 45.74420815 117.2889497 44.28125 113.4453125 C43.75505805 112.08581666 43.22766143 110.72678662 42.69921875 109.36816406 C42.42319824 108.65390259 42.14717773 107.93964111 41.86279297 107.20373535 C40.4076651 103.48706537 38.87596284 99.80260557 37.34375 96.1171875 C37.03002441 95.36173645 36.71629883 94.6062854 36.39306641 93.82794189 C35.75201258 92.28562021 35.11040854 90.7435271 34.46826172 89.20166016 C33.49840816 86.87117494 32.53237289 84.53912977 31.56640625 82.20703125 C28.84319548 75.65328344 26.1007086 69.13019707 23.0703125 62.7109375 C18.78470272 53.55557755 15.13136605 44.13116677 11.375 34.75 C10.24514275 31.93358633 9.11429371 29.11758045 7.9815979 26.30230713 C7.28301914 24.56551432 6.58609649 22.82805402 5.89120483 21.08978271 C5.57052032 20.2915509 5.24983582 19.49331909 4.91943359 18.67089844 C4.60947449 17.89709839 4.29951538 17.12329834 3.98016357 16.3260498 C3.30556356 14.72514026 2.58682022 13.14235432 1.83282471 11.57727051 C-1.04845744 5.5936036 -1.04845744 5.5936036 -0.75 1.9375 C-0.5025 1.298125 -0.255 0.65875 0 0 Z " fill="#0A86FB" transform="translate(1,63)"/>
<path d="M0 0 C0.70205566 0.00265869 1.40411133 0.00531738 2.12744141 0.00805664 C17.41694586 0.14597293 17.41694586 0.14597293 21.375 2.125 C22.43716233 5.16206705 22.54918006 8.13921622 22.65625 11.3359375 C22.71232422 12.83253906 22.71232422 12.83253906 22.76953125 14.359375 C22.82173828 15.91398437 22.82173828 15.91398437 22.875 17.5 C22.94434747 19.54960304 23.01716364 21.59909218 23.09375 23.6484375 C23.12404297 24.55513184 23.15433594 25.46182617 23.18554688 26.39599609 C23.3275666 29.15488766 23.3275666 29.15488766 23.88427734 31.95825195 C24.47061546 35.74202895 24.51842406 39.45182281 24.5078125 43.26953125 C24.50876923 44.03875412 24.50972595 44.80797699 24.51071167 45.60050964 C24.51138934 47.22171104 24.50956398 48.84291521 24.50537109 50.46411133 C24.50003909 52.91949711 24.50531876 55.37469814 24.51171875 57.83007812 C24.51105747 59.4140629 24.50977527 60.99804756 24.5078125 62.58203125 C24.50983673 63.30421341 24.51186096 64.02639557 24.51394653 64.77046204 C24.49382416 69.24351045 24.16644842 73.59801137 23.60205078 78.03582764 C23.2209693 81.54228949 23.22992386 85.03913811 23.25 88.5625 C23.24613281 89.26826172 23.24226563 89.97402344 23.23828125 90.70117188 C23.18320451 94.54005017 23.18320451 94.54005017 24.375 98.125 C22.19843838 104.54012897 22.19843838 104.54012897 19.66015625 106.34301758 C16.65033263 107.37298179 14.17705685 107.26644554 11 107.13671875 C9.76765625 107.08966797 8.5353125 107.04261719 7.265625 106.99414062 C5.98171875 106.93419922 4.6978125 106.87425781 3.375 106.8125 C1.44914062 106.73999023 1.44914062 106.73999023 -0.515625 106.66601562 C-10.87950246 106.23780102 -10.87950246 106.23780102 -14.625 105.125 C-14.75072129 97.70744369 -14.75072129 97.70744369 -14.12599182 94.81318665 C-13.61962931 92.09618234 -13.50462368 89.63665724 -13.51147461 86.87573242 C-13.51155014 85.85505173 -13.51162567 84.83437103 -13.51170349 83.78276062 C-13.51686478 82.6930043 -13.52202606 81.60324799 -13.52734375 80.48046875 C-13.52946617 78.79308342 -13.52946617 78.79308342 -13.53163147 77.0716095 C-13.53722069 73.48521241 -13.54977128 69.89887816 -13.5625 66.3125 C-13.56751639 63.87825611 -13.57207906 61.44401124 -13.57617188 59.00976562 C-13.5871866 53.04815571 -13.60391406 47.08658234 -13.625 41.125 C-14.285 41.125 -14.945 41.125 -15.625 41.125 C-16.285 39.475 -16.945 37.825 -17.625 36.125 C-16.305 35.465 -14.985 34.805 -13.625 34.125 C-13.625 29.835 -13.625 25.545 -13.625 21.125 C-14.945 20.795 -16.265 20.465 -17.625 20.125 C-17.625 19.135 -17.625 18.145 -17.625 17.125 C-20.265 17.125 -22.905 17.125 -25.625 17.125 C-24.635 15.805 -23.645 14.485 -22.625 13.125 C-20.975 13.455 -19.325 13.785 -17.625 14.125 C-17.625 14.785 -17.625 15.445 -17.625 16.125 C-16.965 16.125 -16.305 16.125 -15.625 16.125 C-15.65980469 15.37734375 -15.69460938 14.6296875 -15.73046875 13.859375 C-15.75753906 12.87453125 -15.78460938 11.8896875 -15.8125 10.875 C-15.84730469 9.90046875 -15.88210938 8.9259375 -15.91796875 7.921875 C-15.57545511 4.65201149 -15.00559591 3.37649634 -12.625 1.125 C-8.55148727 -0.2424336 -4.260294 -0.02887476 0 0 Z " fill="#097AC7" transform="translate(409.625,97.875)"/>
<path d="M0 0 C2.97 0 5.94 0 9 0 C9.495 1.485 9.495 1.485 10 3 C10.99 3.33 11.98 3.66 13 4 C13.0810206 6.10353495 13.13919907 8.20795952 13.1875 10.3125 C13.22230469 11.48425781 13.25710938 12.65601562 13.29296875 13.86328125 C12.97226132 17.29698885 12.5437081 17.88926349 10 20 C10.22757731 22.16299211 10.22757731 22.16299211 11 24 C11.66 24 12.32 24 13 24 C13.1705249 28.30063033 13.33069558 32.60149877 13.48217773 36.90283203 C13.53482352 38.35931206 13.59006835 39.815701 13.64819336 41.27197266 C14.48941742 62.47081902 14.48941742 62.47081902 13 70 C10 72 10 72 7 72 C7 71.34 7 70.68 7 70 C5.906875 70.061875 4.81375 70.12375 3.6875 70.1875 C0 70 0 70 -1.9375 69 C-3.67278693 65.73357754 -3.17982715 62.65648548 -3 59 C-3.94875 58.855625 -4.8975 58.71125 -5.875 58.5625 C-9 58 -9 58 -11 57 C-11 58.32 -11 59.64 -11 61 C-14.23253796 63.15502531 -15.25150923 63.46856135 -19 63 C-21.36494987 61.27154281 -21.95957575 60.14980751 -22.73046875 57.29296875 C-22.88128906 56.26816406 -23.03210938 55.24335938 -23.1875 54.1875 C-23.42533203 52.66189453 -23.42533203 52.66189453 -23.66796875 51.10546875 C-24.13054069 46.77906062 -24.38470807 43.1541242 -23 39 C-22.96125079 37.33378384 -22.9549714 35.66605828 -23 34 C-24.32 34 -25.64 34 -27 34 C-27 30.7 -27 27.4 -27 24 C-26.01 23.67 -25.02 23.34 -24 23 C-24 21.35 -24 19.7 -24 18 C-23.04287109 18.01740234 -23.04287109 18.01740234 -22.06640625 18.03515625 C-21.24011719 18.04417969 -20.41382813 18.05320313 -19.5625 18.0625 C-18.32693359 18.07990234 -18.32693359 18.07990234 -17.06640625 18.09765625 C-15.00836062 18.23267348 -15.00836062 18.23267348 -14 17 C-14.99 17 -15.98 17 -17 17 C-17 16.34 -17 15.68 -17 15 C-14.625 14.875 -14.625 14.875 -12 15 C-11.34 15.66 -10.68 16.32 -10 17 C-9.46375 16.21625 -8.9275 15.4325 -8.375 14.625 C-5.69757158 11.66573701 -3.81566975 10.95391744 0 10 C-0.66 8.68 -1.32 7.36 -2 6 C-1.01 5.01 -0.02 4.02 1 3 C0.67 2.01 0.34 1.02 0 0 Z " fill="#2B96D8" transform="translate(383,115)"/>
<path d="M0 0 C1.02003616 -0.00540298 2.04007233 -0.01080597 3.09101868 -0.01637268 C6.45859899 -0.02886811 9.82532593 -0.01236514 13.19287109 0.00561523 C15.53266444 0.00546029 17.87245804 0.00397208 20.21224976 0.00120544 C25.11313233 -0.00017884 30.01372235 0.01238674 34.91455078 0.03515625 C41.20420861 0.063572 47.49338143 0.06079529 53.78307533 0.04806614 C58.61284548 0.0411208 63.44250299 0.04888466 68.27225876 0.06132317 C70.59195906 0.06584658 72.91167141 0.06616673 75.23137283 0.06225777 C78.4683042 0.05935603 81.70456011 0.07580224 84.94140625 0.09765625 C85.90459274 0.0931546 86.86777924 0.08865295 87.8601532 0.08401489 C88.74053757 0.09391953 89.62092194 0.10382416 90.52798462 0.11402893 C91.29303125 0.11645883 92.05807789 0.11888872 92.84630775 0.12139225 C95.34110347 0.59698732 96.24136922 1.58273189 97.84130859 3.50170898 C97.51130859 4.49170898 97.18130859 5.48170898 96.84130859 6.50170898 C95.85130859 6.50170898 94.86130859 6.50170898 93.84130859 6.50170898 C93.84130859 8.15170898 93.84130859 9.80170898 93.84130859 11.50170898 C81.63130859 11.50170898 69.42130859 11.50170898 56.84130859 11.50170898 C56.51130859 12.16170898 56.18130859 12.82170898 55.84130859 13.50170898 C55.84130859 12.84170898 55.84130859 12.18170898 55.84130859 11.50170898 C55.20064453 11.81366211 54.55998047 12.12561523 53.89990234 12.44702148 C45.95883458 16.02109371 45.95883458 16.02109371 41.84130859 14.68920898 C40.85130859 14.29733398 39.86130859 13.90545898 38.84130859 13.50170898 C38.18130859 13.83170898 37.52130859 14.16170898 36.84130859 14.50170898 C35.27914923 14.5967459 33.71299612 14.62965569 32.14794922 14.63110352 C30.68633362 14.63583176 30.68633362 14.63583176 29.19519043 14.64065552 C27.61236267 14.63761917 27.61236267 14.63761917 25.99755859 14.63452148 C24.37750916 14.63595657 24.37750916 14.63595657 22.72473145 14.63742065 C20.43823183 14.63810202 18.15173029 14.63625076 15.86523438 14.63208008 C12.35591303 14.62673124 8.84671968 14.63202657 5.33740234 14.63842773 C3.11995414 14.63776695 0.90250602 14.63648577 -1.31494141 14.63452148 C-2.37015991 14.63654572 -3.42537842 14.63856995 -4.51257324 14.64065552 C-5.48698364 14.63750336 -6.46139404 14.6343512 -7.46533203 14.63110352 C-8.32533813 14.63030792 -9.18534424 14.62951233 -10.07141113 14.62869263 C-12.15869141 14.50170898 -12.15869141 14.50170898 -14.15869141 13.50170898 C-14.74853516 11.57592773 -14.74853516 11.57592773 -15.09619141 9.18920898 C-15.22896484 8.40932617 -15.36173828 7.62944336 -15.49853516 6.82592773 C-15.15869141 4.50170898 -15.15869141 4.50170898 -13.27236938 2.38780212 C-8.8370995 -0.29883797 -5.09385785 -0.05134533 0 0 Z " fill="#05B3E6" transform="translate(536.15869140625,81.498291015625)"/>
<path d="M0 0 C3.43263841 1.64969683 4.41581977 4.95167688 5.92578125 8.265625 C6.62327481 9.72868829 7.3225212 11.19091712 8.0234375 12.65234375 C8.37164551 13.38630371 8.71985352 14.12026367 9.07861328 14.87646484 C10.58663062 17.99426756 12.21444724 21.03221444 13.86328125 24.078125 C14.4253125 25.12097656 14.98734375 26.16382813 15.56640625 27.23828125 C16.85278023 29.54790726 18.20822647 31.77812338 19.61328125 34.015625 C21.11328125 37.015625 21.11328125 37.015625 20.86328125 39.953125 C20.61578125 40.63375 20.36828125 41.314375 20.11328125 42.015625 C18.79328125 42.015625 17.47328125 42.015625 16.11328125 42.015625 C16.11328125 42.675625 16.11328125 43.335625 16.11328125 44.015625 C14.00939556 44.06964774 11.90511411 44.10842756 9.80078125 44.140625 C8.62902344 44.16382813 7.45726562 44.18703125 6.25 44.2109375 C3.11328125 44.015625 3.11328125 44.015625 0.11328125 42.015625 C0.11328125 42.675625 0.11328125 43.335625 0.11328125 44.015625 C-3.15811117 43.70880635 -6.42870796 43.39419218 -9.69921875 43.078125 C-10.62798828 42.99111328 -11.55675781 42.90410156 -12.51367188 42.81445312 C-13.40634766 42.72744141 -14.29902344 42.64042969 -15.21875 42.55078125 C-16.04093018 42.472229 -16.86311035 42.39367676 -17.71020508 42.31274414 C-19.88671875 42.015625 -19.88671875 42.015625 -22.88671875 41.015625 C-22.76086449 34.34534931 -20.63632959 30.68335106 -16.9296875 25.2265625 C-14.14216777 20.84541294 -11.90371934 16.25348384 -9.64038086 11.5859375 C-4.02596812 0.03334135 -4.02596812 0.03334135 0 0 Z " fill="#06AFE9" transform="translate(414.88671875,45.984375)"/>
<path d="M0 0 C0.495 1.485 0.495 1.485 1 3 C0.34 3 -0.32 3 -1 3 C-1.144375 3.61875 -1.28875 4.2375 -1.4375 4.875 C-2 7 -2 7 -3 9 C-4.27617188 9.06058594 -5.55234375 9.12117188 -6.8671875 9.18359375 C-8.53647016 9.26799568 -10.20574037 9.35264386 -11.875 9.4375 C-12.71675781 9.47681641 -13.55851563 9.51613281 -14.42578125 9.55664062 C-15.63427734 9.61948242 -15.63427734 9.61948242 -16.8671875 9.68359375 C-17.61081543 9.72025146 -18.35444336 9.75690918 -19.12060547 9.79467773 C-21.08864312 9.89955865 -21.08864312 9.89955865 -23 11 C-23 10.34 -23 9.68 -23 9 C-26.3 9 -29.6 9 -33 9 C-33 9.66 -33 10.32 -33 11 C-34.32 11 -35.64 11 -37 11 C-37 11.66 -37 12.32 -37 13 C-37.66 13 -38.32 13 -39 13 C-39.33 13.66 -39.66 14.32 -40 15 C-41.32 15 -42.64 15 -44 15 C-44.33 15.99 -44.66 16.98 -45 18 C-48.96 18.495 -48.96 18.495 -53 19 C-53 19.66 -53 20.32 -53 21 C-54.98 21.66 -56.96 22.32 -59 23 C-59.33 25.64 -59.66 28.28 -60 31 C-60.66 30.34 -61.32 29.68 -62 29 C-62.99 29.495 -62.99 29.495 -64 30 C-64.65213292 32.02463255 -64.65213292 32.02463255 -65 34 C-67.64 34 -70.28 34 -73 34 C-74.0712828 27.97403427 -74.09945415 22.11090483 -74 16 C-73.01 16 -72.02 16 -71 16 C-70.34 14.02 -69.68 12.04 -69 10 C-70.98 10.33 -72.96 10.66 -75 11 C-75.33 11.99 -75.66 12.98 -76 14 C-85.9 14 -95.8 14 -106 14 C-106 13.34 -106 12.68 -106 12 C-106.99 12 -107.98 12 -109 12 C-109 11.01 -109 10.02 -109 9 C-106.12180758 8.04060253 -104.3616674 7.88333302 -101.37670898 7.90234375 C-100.44241562 7.90564697 -99.50812225 7.9089502 -98.54551697 7.91235352 C-97.53920731 7.92065186 -96.53289764 7.9289502 -95.49609375 7.9375 C-93.94475487 7.94317993 -93.94475487 7.94317993 -92.36207581 7.94897461 C-89.05384196 7.96120785 -85.74569449 7.97984125 -82.4375 8 C-78.08203367 8.02649809 -73.72660999 8.04653834 -69.37109375 8.0625 C-68.36275986 8.07079834 -67.35442596 8.07909668 -66.3155365 8.08764648 C-64.91882469 8.09260132 -64.91882469 8.09260132 -63.49389648 8.09765625 C-62.67243637 8.10289307 -61.85097626 8.10812988 -61.00462341 8.11352539 C-58.92722862 8.12858356 -58.92722862 8.12858356 -57 7 C-54.875 7.4375 -54.875 7.4375 -53 8 C-53 8.66 -53 9.32 -53 10 C-52.01 9.34 -51.02 8.68 -50 8 C-34.6156431 3.71255627 -18.74653642 5.14416779 -3 6 C-3 4.35 -3 2.7 -3 1 C-2.01 0.67 -1.02 0.34 0 0 Z " fill="#05A8DC" transform="translate(633,87)"/>
<path d="M0 0 C0.99 0 1.98 0 3 0 C4.25173204 3.75519612 4.34433017 7.38483704 4.53515625 11.3046875 C4.57826935 12.13254257 4.62138245 12.96039764 4.665802 13.81333923 C4.8034156 16.50032086 4.93367803 19.18758338 5.0625 21.875 C5.10702301 22.78172455 5.15154602 23.6884491 5.19741821 24.62265015 C5.70392249 35.01609013 6.18653824 45.40430986 6.1875 55.8125 C6.1882251 56.63282715 6.1889502 57.4531543 6.18969727 58.29833984 C6.15875683 61.4612176 6.00726529 63.97820414 5 67 C4.88692098 69.24291243 4.83340397 71.48897433 4.81054688 73.73461914 C4.80225357 74.41459457 4.79396027 75.09457001 4.78541565 75.79515076 C4.76803378 77.27000176 4.75286188 78.74488009 4.73963928 80.21977425 C4.71859822 82.5519796 4.69157803 84.88404733 4.66296387 87.21617126 C4.59315734 93.00677648 4.53369091 98.7974797 4.47393799 104.5881958 C4.42304151 109.4836304 4.36823269 114.37899022 4.30812073 119.2743206 C4.28150693 121.57544115 4.26071848 123.87656856 4.2401123 126.17774963 C4.22351316 127.58342831 4.20664166 128.9891038 4.18945312 130.39477539 C4.17692505 131.62482803 4.16439697 132.85488068 4.15148926 134.12220764 C4 137 4 137 3 139 C1.68 138.67 0.36 138.34 -1 138 C-0.67 92.46 -0.34 46.92 0 0 Z " fill="#037CD2" transform="translate(294,65)"/>
<path d="M0 0 C0.99 0 1.98 0 3 0 C3.33 0.66 3.66 1.32 4 2 C11.92 2 19.84 2 28 2 C28 2.66 28 3.32 28 4 C27.34 4 26.68 4 26 4 C25.67 4.66 25.34 5.32 25 6 C23.68 6 22.36 6 21 6 C20.67 6.99 20.34 7.98 20 9 C17.36 9.33 14.72 9.66 12 10 C12 10.66 12 11.32 12 12 C10.02 12.66 8.04 13.32 6 14 C5.67 16.64 5.34 19.28 5 22 C4.34 21.34 3.68 20.68 3 20 C2.34 20.33 1.68 20.66 1 21 C0.34786708 23.02463255 0.34786708 23.02463255 0 25 C-2.64 25 -5.28 25 -8 25 C-9.0712828 18.97403427 -9.09945415 13.11090483 -9 7 C-8.37351562 6.90203125 -7.74703125 6.8040625 -7.1015625 6.703125 C-5.87566406 6.47882813 -5.87566406 6.47882813 -4.625 6.25 C-3.81289063 6.11078125 -3.00078125 5.9715625 -2.1640625 5.828125 C0.17709092 5.18250739 0.17709092 5.18250739 1.2890625 2.921875 C1.52367187 2.28765625 1.75828125 1.6534375 2 1 C1.34 0.67 0.68 0.34 0 0 Z " fill="#359BD0" transform="translate(568,96)"/>
<path d="M0 0 C1.1309709 3.3929127 0.89601128 3.99097328 -0.29296875 7.2109375 C-0.59195068 8.03819336 -0.89093262 8.86544922 -1.19897461 9.71777344 C-1.52518799 10.5946582 -1.85140137 11.47154297 -2.1875 12.375 C-2.84046225 14.17899349 -3.49150197 15.983684 -4.140625 17.7890625 C-4.45966797 18.67368164 -4.77871094 19.55830078 -5.10742188 20.46972656 C-6.91427107 25.59176844 -8.46917494 30.78948985 -10 36 C-10.66 36 -11.32 36 -12 36 C-12.33 38.31 -12.66 40.62 -13 43 C-13.99 42.67 -14.98 42.34 -16 42 C-16 41.34 -16 40.68 -16 40 C-16.99 40 -17.98 40 -19 40 C-18.4929715 33.44646748 -16.73305948 28.15857655 -14.1875 22.125 C-13.84396484 21.29097656 -13.50042969 20.45695312 -13.14648438 19.59765625 C-12.45441085 17.91746274 -11.75603133 16.23985239 -11.05126953 14.56494141 C-10.32300063 12.78807354 -9.62815007 10.99728021 -8.96044922 9.19677734 C-8.62416504 8.29652832 -8.28788086 7.3962793 -7.94140625 6.46875 C-7.64564697 5.65083984 -7.3498877 4.83292969 -7.04516602 3.99023438 C-6 2 -6 2 -2.75 0.375 C-1.38875 0.189375 -1.38875 0.189375 0 0 Z " fill="#0D85F0" transform="translate(141,0)"/>
<path d="M0 0 C24.44785276 -0.27607362 24.44785276 -0.27607362 29 2 C30.0270182 4.96258426 30.1714622 7.84844704 30.28125 10.96484375 C30.33647827 12.40428345 30.33647827 12.40428345 30.39282227 13.87280273 C30.42819092 14.88415283 30.46355957 15.89550293 30.5 16.9375 C30.82468777 25.31313271 31.24677928 33.65046816 32 42 C31.34 42 30.68 42 30 42 C29.67 43.65 29.34 45.3 29 47 C28.67 47 28.34 47 28 47 C27.67 51.29 27.34 55.58 27 60 C26.67 60 26.34 60 26 60 C26 41.85 26 23.7 26 5 C21.38 5 16.76 5 12 5 C12 4.67 12 4.34 12 4 C6.06 2.515 6.06 2.515 0 1 C0 0.67 0 0.34 0 0 Z " fill="#0C71BA" transform="translate(402,98)"/>
<path d="M0 0 C1.98960773 3.3183077 2.2361745 5.79959699 2.1953125 9.640625 C2.18886719 10.71054688 2.18242188 11.78046875 2.17578125 12.8828125 C2.15902344 13.99398437 2.14226563 15.10515625 2.125 16.25 C2.11597656 17.37664062 2.10695313 18.50328125 2.09765625 19.6640625 C2.07410658 22.44292365 2.0412168 25.2213539 2 28 C2.66 27.01 3.32 26.02 4 25 C3.67 24.34 3.34 23.68 3 23 C6.37097383 21.50178941 8.20442119 21 12 21 C13.02833999 23.32494259 14.02543485 25.65287975 15 28 C15.28875 28.66 15.5775 29.32 15.875 30 C16.08633896 33.38142343 14.44985354 35.98430463 13 39 C11.39773045 39.22245393 9.79303233 39.42746669 8.1875 39.625 C7.29417969 39.74101562 6.40085937 39.85703125 5.48046875 39.9765625 C3 40 3 40 0 38 C-0.39675741 35.06217793 -0.6075435 32.32476225 -0.6875 29.375 C-0.72020996 28.53066406 -0.75291992 27.68632812 -0.78662109 26.81640625 C-1.56966135 4.70898404 -1.56966135 4.70898404 0 0 Z " fill="#307EBA" transform="translate(556,101)"/>
<path d="M0 0 C0.33 0 0.66 0 1 0 C2.38529821 5.45461169 3.2396943 10.36718401 3 16 C5.64 15.67 8.28 15.34 11 15 C11.33 14.01 11.66 13.02 12 12 C12.66 12 13.32 12 14 12 C14.33 12.66 14.66 13.32 15 14 C15.66 14 16.32 14 17 14 C17 13.34 17 12.68 17 12 C17.639375 11.896875 18.27875 11.79375 18.9375 11.6875 C19.618125 11.460625 20.29875 11.23375 21 11 C21.33 10.01 21.66 9.02 22 8 C23.65 8 25.3 8 27 8 C27.33 7.01 27.66 6.02 28 5 C30.375 3.75 30.375 3.75 33 3 C33.99 3.33 34.98 3.66 36 4 C34.88266271 5.50571657 33.75589965 7.00444292 32.625 8.5 C31.99851562 9.3353125 31.37203125 10.170625 30.7265625 11.03125 C30.15679688 11.6809375 29.58703125 12.330625 29 13 C28.34 13 27.68 13 27 13 C26.773125 13.556875 26.54625 14.11375 26.3125 14.6875 C24.62449964 17.66159588 22.53323483 19.72008865 20 22 C19.34 22 18.68 22 18 22 C17.67 22.99 17.34 23.98 17 25 C16.34 25 15.68 25 15 25 C14.67 25.66 14.34 26.32 14 27 C13.49596232 25.70990357 12.99690074 24.41786211 12.5 23.125 C12.2215625 22.40570313 11.943125 21.68640625 11.65625 20.9453125 C11 19 11 19 11 17 C9.02 17.66 7.04 18.32 5 19 C5.66 19.66 6.32 20.32 7 21 C5.68 21 4.36 21 3 21 C2.67 22.32 2.34 23.64 2 25 C1.34 24.67 0.68 24.34 0 24 C0 16.08 0 8.16 0 0 Z " fill="#0860A7" transform="translate(557,105)"/>
<path d="M0 0 C0.66 0 1.32 0 2 0 C3.28937948 49.45115877 3.28937948 49.45115877 2.8588562 68.40408325 C2.82807915 69.79561506 2.80387422 71.18730853 2.78640747 72.57907104 C2.75957329 74.48019624 2.70294185 76.38083287 2.64453125 78.28125 C2.61721924 79.32345703 2.58990723 80.36566406 2.56176758 81.43945312 C2 84 2 84 -0.0402832 85.85742188 C-0.68698975 86.23447266 -1.33369629 86.61152344 -2 87 C-2.33 86.34 -2.66 85.68 -3 85 C-2.34 85 -1.68 85 -1 85 C-1.00222061 84.17109253 -1.00444122 83.34218506 -1.00672913 82.48815918 C-1.02692103 74.60529192 -1.04206926 66.72243357 -1.05181217 58.8395462 C-1.05698976 54.78868998 -1.06399202 50.73785546 -1.07543945 46.68701172 C-1.08645334 42.76420382 -1.09231521 38.84141655 -1.09487724 34.91859436 C-1.09669868 33.43579281 -1.10025361 31.95299214 -1.10573006 30.47019958 C-1.14182913 20.27320819 -0.75133058 10.16966488 0 0 Z " fill="#1A71B9" transform="translate(556,152)"/>
<path d="M0 0 C0.66 0 1.32 0 2 0 C2.33 0.66 2.66 1.32 3 2 C5.02463255 2.65213292 5.02463255 2.65213292 7 3 C6.09523913 5.99267058 5.21610128 8.64831737 3.57421875 11.3203125 C1.87840959 14.20697524 0.76659771 17.04236001 -0.375 20.1875 C-1.97694752 24.40820006 -3.60546365 28.5886289 -5.5 32.6875 C-5.8609375 33.47511719 -6.221875 34.26273438 -6.59375 35.07421875 C-8.39691556 37.54355381 -10.12669914 38.1044879 -13 39 C-13.30550517 34.08211186 -12.35827826 30.76357815 -10.4375 26.25 C-9.89074626 24.94189918 -9.34523138 23.63328004 -8.80078125 22.32421875 C-8.51025879 21.63247559 -8.21973633 20.94073242 -7.92041016 20.22802734 C-6.25592425 16.19882353 -4.69575872 12.12894351 -3.125 8.0625 C-2.52352064 6.5116865 -1.92196535 4.96090245 -1.3203125 3.41015625 C-0.88460937 2.28480469 -0.44890625 1.15945312 0 0 Z " fill="#0F8EF7" transform="translate(48,216)"/>
<path d="M0 0 C5.6889373 5.50755089 9.16769588 11.68926628 12 19 C12.30164063 19.73734375 12.60328125 20.4746875 12.9140625 21.234375 C17.47054617 33.92439494 15.32583624 46.64046788 11 59 C10.01 59 9.02 59 8 59 C7.01 61.475 7.01 61.475 6 64 C4.86562485 61.1708957 4.99630766 60.01131716 5.9609375 57.0546875 C6.42757812 56.00539062 6.89421875 54.95609375 7.375 53.875 C7.83648438 52.82054687 8.29796875 51.76609375 8.7734375 50.6796875 C9.49240325 49.10895342 10.2274565 47.545087 11 46 C10.94736364 44.03649855 10.82170184 42.07473994 10.66015625 40.1171875 C10.56669922 38.95058594 10.47324219 37.78398437 10.37695312 36.58203125 C10.27318359 35.35871094 10.16941406 34.13539063 10.0625 32.875 C9.96259766 31.64394531 9.86269531 30.41289062 9.75976562 29.14453125 C9.51162102 26.09589748 9.2581436 23.04780074 9 20 C8.34 20.33 7.68 20.66 7 21 C7 19.02 7 17.04 7 15 C6.34 15 5.68 15 5 15 C4.73445312 14.36191406 4.46890625 13.72382812 4.1953125 13.06640625 C3.84210937 12.24011719 3.48890625 11.41382812 3.125 10.5625 C2.77695312 9.73878906 2.42890625 8.91507813 2.0703125 8.06640625 C1.1755063 5.84253285 1.1755063 5.84253285 -1 5 C-0.67 3.35 -0.34 1.7 0 0 Z " fill="#0F57A2" transform="translate(669,114)"/>
<path d="M0 0 C1.9480957 0.00483398 1.9480957 0.00483398 3.93554688 0.00976562 C5.30729233 0.01812094 6.67903712 0.02658588 8.05078125 0.03515625 C9.4342432 0.0401729 10.81770688 0.04473552 12.20117188 0.04882812 C15.5885852 0.06063096 18.97591158 0.07709606 22.36328125 0.09765625 C22.36328125 0.75765625 22.36328125 1.41765625 22.36328125 2.09765625 C23.02328125 2.42765625 23.68328125 2.75765625 24.36328125 3.09765625 C24.03328125 4.08765625 23.70328125 5.07765625 23.36328125 6.09765625 C13.46328125 6.09765625 3.56328125 6.09765625 -6.63671875 6.09765625 C-6.63671875 5.43765625 -6.63671875 4.77765625 -6.63671875 4.09765625 C-7.62671875 4.09765625 -8.61671875 4.09765625 -9.63671875 4.09765625 C-9.63671875 3.10765625 -9.63671875 2.11765625 -9.63671875 1.09765625 C-6.21920222 -0.04151593 -3.60183938 -0.01572856 0 0 Z " fill="#0382C3" transform="translate(533.63671875,94.90234375)"/>
<path d="M0 0 C0.33 0 0.66 0 1 0 C1.0294191 3.47914843 1.04693792 6.95826417 1.0625 10.4375 C1.07087891 11.41138672 1.07925781 12.38527344 1.08789062 13.38867188 C1.10539042 18.6211098 0.88414576 23.68212566 0.22924805 28.87182617 C-0.15004239 32.39288549 -0.14515876 35.89963678 -0.125 39.4375 C-0.12886719 40.14326172 -0.13273437 40.84902344 -0.13671875 41.57617188 C-0.19179549 45.41505017 -0.19179549 45.41505017 1 49 C-1.17343173 55.40590406 -1.17343173 55.40590406 -4 57.4375 C-6 58 -6 58 -9 58 C-8.6875 56.0625 -8.6875 56.0625 -8 54 C-6.515 53.505 -6.515 53.505 -5 53 C-5 39.47 -5 25.94 -5 12 C-4.67 12 -4.34 12 -4 12 C-4 17.61 -4 23.22 -4 29 C-3.01 29 -2.02 29 -1 29 C-1.01160156 28.33097656 -1.02320313 27.66195312 -1.03515625 26.97265625 C-1.11995022 17.94815531 -0.59711025 8.99930454 0 0 Z " fill="#0E70B7" transform="translate(433,147)"/>
<path d="M0 0 C1.65 0 3.3 0 5 0 C5.33 0.66 5.66 1.32 6 2 C5.01 2.33 4.02 2.66 3 3 C3 4.32 3 5.64 3 7 C1.68 7.33 0.36 7.66 -1 8 C-1 7.34 -1 6.68 -1 6 C-1.33 6.66 -1.66 7.32 -2 8 C-2.66 8 -3.32 8 -4 8 C-4 8.66 -4 9.32 -4 10 C-5.134375 10.45375 -6.26875 10.9075 -7.4375 11.375 C-11.04721692 12.57095806 -11.04721692 12.57095806 -12 15 C-13.65 15 -15.3 15 -17 15 C-17.33 16.32 -17.66 17.64 -18 19 C-19.32 19 -20.64 19 -22 19 C-22 19.66 -22 20.32 -22 21 C-22.99 21.33 -23.98 21.66 -25 22 C-25.33 19.36 -25.66 16.72 -26 14 C-25.01 15.485 -25.01 15.485 -24 17 C-24 16.01 -24 15.02 -24 14 C-23.34 14 -22.68 14 -22 14 C-22 13.34 -22 12.68 -22 12 C-19 10 -19 10 -16 10 C-16 9.34 -16 8.68 -16 8 C-15.43410156 7.87882812 -14.86820313 7.75765625 -14.28515625 7.6328125 C-13.55167969 7.46523437 -12.81820312 7.29765625 -12.0625 7.125 C-10.96615234 6.88136719 -10.96615234 6.88136719 -9.84765625 6.6328125 C-7.79299706 6.17038477 -7.79299706 6.17038477 -7 4 C-4.6859378 3.26924352 -2.35171131 2.59861742 0 2 C0 1.34 0 0.68 0 0 Z " fill="#2872B0" transform="translate(596,98)"/>
<path d="M0 0 C1.98 0 3.96 0 6 0 C6 0.66 6 1.32 6 2 C6.99 2.33 7.98 2.66 9 3 C9.99 3.66 10.98 4.32 12 5 C12.29296875 7.1640625 12.29296875 7.1640625 12.1875 9.625 C12.16042969 10.44226563 12.13335938 11.25953125 12.10546875 12.1015625 C12.07066406 12.72804688 12.03585937 13.35453125 12 14 C11.34 14 10.68 14 10 14 C9.67 15.32 9.34 16.64 9 18 C6.36 18 3.72 18 1 18 C-0.0712828 11.97403427 -0.09945415 6.11090483 0 0 Z " fill="#2F83C4" transform="translate(559,103)"/>
<path d="M0 0 C2.375 0.1875 2.375 0.1875 5 1 C7.16789459 4.61315766 7.19258541 7.85941364 7 12 C6.67 11.34 6.34 10.68 6 10 C3.65941363 12.12780579 2.29299694 14.11562221 1 17 C-1.31 16.67 -3.62 16.34 -6 16 C-7.60455021 11.77749945 -8.33807057 9.84517642 -6.625 5.5625 C-6.08875 4.716875 -5.5525 3.87125 -5 3 C-3.68 3 -2.36 3 -1 3 C-0.67 2.01 -0.34 1.02 0 0 Z M-6 18 C-3.525 18.495 -3.525 18.495 -1 19 C-1 19.33 -1 19.66 -1 20 C-2.65 20 -4.3 20 -6 20 C-6 19.34 -6 18.68 -6 18 Z " fill="#3EA7D4" transform="translate(369,139)"/>
<path d="M0 0 C2.69082872 0.17635452 5.32851446 0.61835921 8 1 C8.0810206 3.10353495 8.13919907 5.20795952 8.1875 7.3125 C8.22230469 8.48425781 8.25710938 9.65601562 8.29296875 10.86328125 C7.97226132 14.29698885 7.5437081 14.88926349 5 17 C5.22757731 19.16299211 5.22757731 19.16299211 6 21 C6.66 21 7.32 21 8 21 C8 24.63 8 28.26 8 32 C5.525 32.495 5.525 32.495 3 33 C3.03480469 31.94039062 3.06960938 30.88078125 3.10546875 29.7890625 C3.13360399 28.40105748 3.16090443 27.01303537 3.1875 25.625 C3.21263672 24.92632812 3.23777344 24.22765625 3.26367188 23.5078125 C3.32978561 21.23252323 3.32978561 21.23252323 3 18 C2.01 17.34 1.02 16.68 0 16 C0.375 13.5625 0.375 13.5625 1 11 C1.66 10.67 2.32 10.34 3 10 C2.73606499 6.56769552 2.73606499 6.56769552 2 3 C1.01 2.34 0.02 1.68 -1 1 C-0.67 0.67 -0.34 0.34 0 0 Z " fill="#1788D4" transform="translate(388,118)"/>
<path d="M0 0 C0.66 0.33 1.32 0.66 2 1 C2 2.98 2 4.96 2 7 C2.99 7 3.98 7 5 7 C5 7.66 5 8.32 5 9 C4.35039307 9.01981934 3.70078613 9.03963867 3.03149414 9.06005859 C0.04147478 9.15627933 -2.94793648 9.26555899 -5.9375 9.375 C-6.95908203 9.4059375 -7.98066406 9.436875 -9.03320312 9.46875 C-15.26991417 9.70785713 -20.95203532 10.448593 -27 12 C-26.67 11.34 -26.34 10.68 -26 10 C-26 9.67 -26 9.34 -26 9 C-27.65 9 -29.3 9 -31 9 C-31.33 8.01 -31.66 7.02 -32 6 C-30.35425434 5.97311849 -28.70838587 5.95365877 -27.0625 5.9375 C-26.14597656 5.92589844 -25.22945312 5.91429688 -24.28515625 5.90234375 C-22 6 -22 6 -21 7 C-21 6.67 -21 6.34 -21 6 C-14.73 6 -8.46 6 -2 6 C-1.34 4.02 -0.68 2.04 0 0 Z " fill="#0C73C1" transform="translate(632,90)"/>
<path d="M0 0 C0.99 0.33 1.98 0.66 3 1 C3.11644029 12.72165553 3.0162994 24.43532145 2.68161011 36.152771 C2.64386345 37.50949363 2.60946095 38.86631342 2.57839966 40.22320557 C2.53329638 42.14254507 2.4739747 44.06153442 2.4140625 45.98046875 C2.3826416 47.09317139 2.3512207 48.20587402 2.31884766 49.35229492 C2 52 2 52 0 54 C0 36.18 0 18.36 0 0 Z " fill="#1788DD" transform="translate(295,132)"/>
<path d="M0 0 C0.33 0 0.66 0 1 0 C1 2.64 1 5.28 1 8 C-14.18 8 -29.36 8 -45 8 C-45 9.98 -45 11.96 -45 14 C-31.14 14.495 -31.14 14.495 -17 15 C-17 15.33 -17 15.66 -17 16 C-21.35994067 16.024727 -25.71984414 16.04287281 -30.07983398 16.05493164 C-31.56291413 16.05995903 -33.04598933 16.06678185 -34.52905273 16.07543945 C-36.66130801 16.08757482 -38.79349773 16.09324425 -40.92578125 16.09765625 C-42.20880127 16.10289307 -43.49182129 16.10812988 -44.8137207 16.11352539 C-48 16 -48 16 -51 15 C-51 14.34 -51 13.68 -51 13 C-50.34 13 -49.68 13 -49 13 C-49 11.02 -49 9.04 -49 7 C-32.83 7 -16.66 7 0 7 C0 4.69 0 2.38 0 0 Z " fill="#74B3DF" transform="translate(621,144)"/>
<path d="M0 0 C0.33 0 0.66 0 1 0 C2.38529821 5.45461169 3.2396943 10.36718401 3 16 C5.64 15.67 8.28 15.34 11 15 C11.33 14.01 11.66 13.02 12 12 C12.66 12 13.32 12 14 12 C14.33 12.66 14.66 13.32 15 14 C15.66 14 16.32 14 17 14 C17.19294408 18.82360189 16.75747614 22.49646738 15 27 C14.34 26.67 13.68 26.34 13 26 C12.4375 23.6875 12.4375 23.6875 12 21 C11.67516582 19.66457061 11.3449145 18.33038449 11 17 C9.02 17.66 7.04 18.32 5 19 C5.66 19.66 6.32 20.32 7 21 C5.68 21 4.36 21 3 21 C2.67 22.32 2.34 23.64 2 25 C1.34 24.67 0.68 24.34 0 24 C0 16.08 0 8.16 0 0 Z " fill="#2466AB" transform="translate(557,105)"/>
<path d="M0 0 C1.12018319 3.36054957 0.90181274 4.01723271 -0.21484375 7.23046875 C-0.48876953 8.03291016 -0.76269531 8.83535156 -1.04492188 9.66210938 C-1.33947266 10.49548828 -1.63402344 11.32886719 -1.9375 12.1875 C-2.22818359 13.03248047 -2.51886719 13.87746094 -2.81835938 14.74804688 C-3.53757537 16.83495229 -4.2650343 18.91859994 -5 21 C-5.99 19.68 -6.98 18.36 -8 17 C-9.32 17.33 -10.64 17.66 -12 18 C-11.15297867 15.36282012 -10.2748981 12.74410641 -9.375 10.125 C-9.13910156 9.37863281 -8.90320313 8.63226563 -8.66015625 7.86328125 C-7.91608286 5.74553391 -7.20436161 3.89606329 -6 2 C-2.7890625 0.4921875 -2.7890625 0.4921875 0 0 Z " fill="#117EE9" transform="translate(141,0)"/>
<path d="M0 0 C8.18872338 7.92763365 14.30918281 19.93118714 15.18359375 31.41015625 C15.18688173 33.27443933 15.10341198 35.13858437 15 37 C14.67 37 14.34 37 14 37 C13.67 34.69 13.34 32.38 13 30 C12.01 30 11.02 30 10 30 C9.67 26.7 9.34 23.4 9 20 C8.34 20.33 7.68 20.66 7 21 C7 19.02 7 17.04 7 15 C6.34 15 5.68 15 5 15 C4.73445312 14.36191406 4.46890625 13.72382812 4.1953125 13.06640625 C3.84210937 12.24011719 3.48890625 11.41382812 3.125 10.5625 C2.77695312 9.73878906 2.42890625 8.91507813 2.0703125 8.06640625 C1.1755063 5.84253285 1.1755063 5.84253285 -1 5 C-0.67 3.35 -0.34 1.7 0 0 Z " fill="#10569B" transform="translate(669,114)"/>
<path d="M0 0 C2 2 2 2 2.22705078 5.71533203 C2.22673351 7.31286052 2.21539982 8.91041027 2.1953125 10.5078125 C2.19106766 11.76874222 2.19106766 11.76874222 2.18673706 13.05514526 C2.1755243 15.74524046 2.15041803 18.4350051 2.125 21.125 C2.1149716 22.94660978 2.10584551 24.76822477 2.09765625 26.58984375 C2.07558142 31.06002358 2.04104434 35.52995571 2 40 C1.34 40 0.68 40 0 40 C-0.33 37.69 -0.66 35.38 -1 33 C-1.33 33 -1.66 33 -2 33 C-2.03758423 32.14619751 -2.03758423 32.14619751 -2.07592773 31.27514648 C-2.19293894 28.66242687 -2.3151828 26.04997638 -2.4375 23.4375 C-2.47681641 22.54224609 -2.51613281 21.64699219 -2.55664062 20.72460938 C-2.79332783 15.7541781 -3.19821672 10.91176481 -4 6 C-3.01 6.33 -2.02 6.66 -1 7 C-0.67 5.68 -0.34 4.36 0 3 C-0.66 2.67 -1.32 2.34 -2 2 C-1.34 1.34 -0.68 0.68 0 0 Z " fill="#0160B1" transform="translate(523,193)"/>
<path d="M0 0 C0.66 0 1.32 0 2 0 C3.23180134 3.69540402 3.12412112 7.10303378 3.09765625 10.94921875 C3.0962413 11.72183548 3.09482635 12.49445221 3.09336853 13.29048157 C3.08777466 15.75619389 3.07522333 18.22181515 3.0625 20.6875 C3.05748421 22.36002473 3.05292144 24.03255088 3.04882812 25.70507812 C3.03780724 29.80342046 3.02054684 33.90169479 3 38 C2.67 38 2.34 38 2 38 C1.48877952 34.06387423 0.99313662 30.12592893 0.5 26.1875 C0.35691406 25.08728516 0.21382813 23.98707031 0.06640625 22.85351562 C-2.2159242 4.4318484 -2.2159242 4.4318484 0 0 Z " fill="#1389EA" transform="translate(296,90)"/>
<path d="M0 0 C1.67542976 0.28604898 3.34385343 0.61781233 5 1 C5 1.66 5 2.32 5 3 C5.66 2.67 6.32 2.34 7 2 C8.54613014 2.08651631 10.08909387 2.24002636 11.625 2.4375 C12.85089844 2.59025391 12.85089844 2.59025391 14.1015625 2.74609375 C14.72804688 2.82988281 15.35453125 2.91367188 16 3 C16 3.33 16 3.66 16 4 C9.73 4 3.46 4 -3 4 C-3.33 4.66 -3.66 5.32 -4 6 C-4 4.68 -4 3.36 -4 2 C-4.309375 2.804375 -4.61875 3.60875 -4.9375 4.4375 C-6 7 -6 7 -7 8 C-8.99958364 8.04080783 -11.00045254 8.04254356 -13 8 C-12.34 6.35 -11.68 4.7 -11 3 C-13.64 3 -16.28 3 -19 3 C-19 2.34 -19 1.68 -19 1 C-17.71222656 1.01160156 -16.42445313 1.02320312 -15.09765625 1.03515625 C-13.41927228 1.0445327 -11.74088674 1.05363305 -10.0625 1.0625 C-9.21236328 1.07087891 -8.36222656 1.07925781 -7.48632812 1.08789062 C-6.67744141 1.09111328 -5.86855469 1.09433594 -5.03515625 1.09765625 C-4.2862915 1.10289307 -3.53742676 1.10812988 -2.76586914 1.11352539 C-0.97332261 1.19341752 -0.97332261 1.19341752 0 0 Z " fill="#169BD3" transform="translate(575,94)"/>
<path d="M0 0 C0.33 0 0.66 0 1 0 C1.92848104 22.3993419 1.96863915 44.60049415 1 67 C0.34 66.67 -0.32 66.34 -1 66 C-1.11904879 43.97231167 -0.97373407 22.01001555 0 0 Z " fill="#1A5B99" transform="translate(557,169)"/>
<path d="M0 0 C0.33 0 0.66 0 1 0 C1.0270491 3.06255961 1.04686298 6.1248786 1.0625 9.1875 C1.07087891 10.05181641 1.07925781 10.91613281 1.08789062 11.80664062 C1.10396812 16.00286769 1.07559038 19.90936886 0 24 C-0.33 23.01 -0.66 22.02 -1 21 C-4.34252724 20.92572162 -6.8035914 20.93453047 -10 22 C-10 20.35 -10 18.7 -10 17 C-11.32 16.67 -12.64 16.34 -14 16 C-12.8125 14.4375 -12.8125 14.4375 -11 13 C-8.3125 13.3125 -8.3125 13.3125 -6 14 C-6 14.66 -6 15.32 -6 16 C-4.35 15.34 -2.7 14.68 -1 14 C-0.67 9.38 -0.34 4.76 0 0 Z " fill="#1082CF" transform="translate(396,171)"/>
<path d="M0 0 C6.93 0 13.86 0 21 0 C19.02 2.97 19.02 2.97 17 6 C16.34 5.34 15.68 4.68 15 4 C12.42938689 3.35232207 12.42938689 3.35232207 10 3 C10 3.66 10 4.32 10 5 C10.99 5 11.98 5 13 5 C13 6.98 13 8.96 13 11 C12.67 11 12.34 11 12 11 C12 9.35 12 7.7 12 6 C9.03 6 6.06 6 3 6 C2.67 5.01 2.34 4.02 2 3 C1.01 3.495 1.01 3.495 0 4 C0 2.68 0 1.36 0 0 Z " fill="#1384CE" transform="translate(356,127)"/>
<path d="M0 0 C0 0.66 0 1.32 0 2 C-0.66 2 -1.32 2 -2 2 C-2.33 2.66 -2.66 3.32 -3 4 C-4.32 4 -5.64 4 -7 4 C-7.33 4.99 -7.66 5.98 -8 7 C-10.64 7.33 -13.28 7.66 -16 8 C-16 8.66 -16 9.32 -16 10 C-17.4540625 10.433125 -17.4540625 10.433125 -18.9375 10.875 C-22.10664203 11.64214682 -22.10664203 11.64214682 -23 14 C-23.33 12.35 -23.66 10.7 -24 9 C-23.34 9 -22.68 9 -22 9 C-22 8.01 -22 7.02 -22 6 C-21.443125 5.81824219 -20.88625 5.63648437 -20.3125 5.44921875 C-16.41258013 4.16461676 -12.56188755 2.84016486 -8.75 1.3125 C-5.47416853 0.16595899 -3.40225552 -0.31896146 0 0 Z " fill="#388BBD" transform="translate(596,98)"/>
<path d="M0 0 C0.66 0 1.32 0 2 0 C1.0125055 26.17654243 1.0125055 26.17654243 0 36 C-0.66 36 -1.32 36 -2 36 C-2.0496011 31.67669221 -2.0858144 27.35353715 -2.10986328 23.0300293 C-2.11989352 21.56059888 -2.13352101 20.09118829 -2.15087891 18.62182617 C-2.17525898 16.50434463 -2.18651286 14.38712801 -2.1953125 12.26953125 C-2.20578613 10.99698486 -2.21625977 9.72443848 -2.22705078 8.41333008 C-2.00942228 5.14164829 -1.41502625 2.93042634 0 0 Z " fill="#1C86C3" transform="translate(432,140)"/>
<path d="M0 0 C24.44785276 -0.27607362 24.44785276 -0.27607362 29 2 C28.67 2.99 28.34 3.98 28 5 C22.72 5 17.44 5 12 5 C12 4.67 12 4.34 12 4 C6.06 2.515 6.06 2.515 0 1 C0 0.67 0 0.34 0 0 Z " fill="#0B75C7" transform="translate(402,98)"/>
<path d="M0 0 C0.33 0 0.66 0 1 0 C1.66 6.27 2.32 12.54 3 19 C3.33 14.38 3.66 9.76 4 5 C4.33 5 4.66 5 5 5 C5.05816623 8.41659491 5.09365195 11.83306205 5.125 15.25 C5.15013672 16.70212891 5.15013672 16.70212891 5.17578125 18.18359375 C5.18222656 19.11816406 5.18867188 20.05273438 5.1953125 21.015625 C5.20578613 21.87446289 5.21625977 22.73330078 5.22705078 23.61816406 C4.98293323 26.17903596 4.28990512 27.79511029 3 30 C2.01 29.67 1.02 29.34 0 29 C0 19.43 0 9.86 0 0 Z " fill="#0C69CE" transform="translate(295,103)"/>
<path d="M0 0 C0.33 0 0.66 0 1 0 C1 15.84 1 31.68 1 48 C-0.485 48.495 -0.485 48.495 -2 49 C-2.02690104 46.20826945 -2.04679053 43.41679652 -2.0625 40.625 C-2.07087891 39.8309375 -2.07925781 39.036875 -2.08789062 38.21875 C-2.11328125 32.2265625 -2.11328125 32.2265625 -1 30 C-0.84504237 27.75025839 -0.74989072 25.49628464 -0.68359375 23.2421875 C-0.66281265 22.57913605 -0.64203156 21.91608459 -0.62062073 21.23294067 C-0.55520769 19.11373306 -0.49627895 16.994401 -0.4375 14.875 C-0.39430691 13.43878919 -0.35069236 12.00259098 -0.30664062 10.56640625 C-0.19953501 7.04440406 -0.09824425 3.52226175 0 0 Z " fill="#1C80CF" transform="translate(297,154)"/>
<path d="M0 0 C0.33 5.28 0.66 10.56 1 16 C11.23 16 21.46 16 32 16 C32.33 15.01 32.66 14.02 33 13 C33 14.32 33 15.64 33 17 C19.14 17 5.28 17 -9 17 C-9 16.67 -9 16.34 -9 16 C-5.535 15.505 -5.535 15.505 -2 15 C-2 11.04 -2 7.08 -2 3 C-2.99 3.33 -3.98 3.66 -5 4 C-4.67 3.01 -4.34 2.02 -4 1 C-2 0 -2 0 0 0 Z " fill="#3899E4" transform="translate(185,126)"/>
<path d="M0 0 C11.22 0 22.44 0 34 0 C33.67 0.66 33.34 1.32 33 2 C30.9375 2.625 30.9375 2.625 29 3 C29.33 4.98 29.66 6.96 30 9 C28.02 9.99 28.02 9.99 26 11 C24.26265853 7.19956554 24 5.40285423 24 1 C16.08 1 8.16 1 0 1 C0 0.67 0 0.34 0 0 Z " fill="#1A8ADF" transform="translate(192,161)"/>
<path d="M0 0 C3.5857684 1.60016375 7.13613895 1.6181208 11.0234375 1.8203125 C12.18746094 1.90345703 12.18746094 1.90345703 13.375 1.98828125 C15.37971131 2.1031345 17.39059373 2.09525466 19.3984375 2.0703125 C20.0584375 1.4103125 20.7184375 0.7503125 21.3984375 0.0703125 C24.5234375 0.4453125 24.5234375 0.4453125 27.3984375 1.0703125 C27.3984375 2.0603125 27.3984375 3.0503125 27.3984375 4.0703125 C17.4984375 4.0703125 7.5984375 4.0703125 -2.6015625 4.0703125 C-2.6015625 3.4103125 -2.6015625 2.7503125 -2.6015625 2.0703125 C-3.5915625 2.0703125 -4.5815625 2.0703125 -5.6015625 2.0703125 C-5.6015625 1.4103125 -5.6015625 0.7503125 -5.6015625 0.0703125 C-2.05864165 -1.19501637 -2.05864165 -1.19501637 0 0 Z " fill="#1488CD" transform="translate(529.6015625,96.9296875)"/>
<path d="M0 0 C1.47583955 0.0001591 2.95168467 0.00585225 4.42749023 0.01586914 C5.20293686 0.01728409 5.97838348 0.01869904 6.77732849 0.02015686 C9.26361893 0.02577194 11.74982059 0.03832693 14.23608398 0.05102539 C15.91772331 0.05603845 17.59936405 0.06060169 19.28100586 0.06469727 C23.41189965 0.07574626 27.54272674 0.09302094 31.67358398 0.11352539 C31.67358398 0.77352539 31.67358398 1.43352539 31.67358398 2.11352539 C30.39741211 2.17411133 29.12124023 2.23469727 27.80639648 2.29711914 C26.13711383 2.38152107 24.46784361 2.46616925 22.79858398 2.55102539 C21.95682617 2.5903418 21.11506836 2.6296582 20.24780273 2.67016602 C19.44213867 2.71206055 18.63647461 2.75395508 17.80639648 2.79711914 C17.06276855 2.83377686 16.31914063 2.87043457 15.55297852 2.90820312 C13.58494087 3.01308404 13.58494087 3.01308404 11.67358398 4.11352539 C11.67358398 3.45352539 11.67358398 2.79352539 11.67358398 2.11352539 C8.37358398 2.11352539 5.07358398 2.11352539 1.67358398 2.11352539 C1.67358398 2.77352539 1.67358398 3.43352539 1.67358398 4.11352539 C0.02358398 4.11352539 -1.62641602 4.11352539 -3.32641602 4.11352539 C-3.65641602 3.12352539 -3.98641602 2.13352539 -4.32641602 1.11352539 C-3.32641602 0.11352539 -3.32641602 0.11352539 0 0 Z " fill="#0297CC" transform="translate(598.326416015625,93.886474609375)"/>
<path d="M0 0 C0.33 2.64 0.66 5.28 1 8 C0.34 8 -0.32 8 -1 8 C-1.33 9.32 -1.66 10.64 -2 12 C-4.64 12 -7.28 12 -10 12 C-9.34 11.67 -8.68 11.34 -8 11 C-8.103125 10.113125 -8.20625 9.22625 -8.3125 8.3125 C-8 5 -8 5 -5.6875 2.125 C-3 0 -3 0 0 0 Z " fill="#3C82C2" transform="translate(570,109)"/>
<path d="M0 0 C1.95629709 3.27721977 2.22714877 5.67447774 2.16015625 9.46484375 C2.14919922 10.51220703 2.13824219 11.55957031 2.12695312 12.63867188 C2.10568359 13.72728516 2.08441406 14.81589844 2.0625 15.9375 C2.02792975 18.09237872 1.99782231 20.24733468 1.97265625 22.40234375 C1.95468994 23.35616943 1.93672363 24.30999512 1.91821289 25.29272461 C1.99923171 27.97456844 2.46204354 30.37882178 3 33 C2.5625 35.3125 2.5625 35.3125 2 37 C-0.8736371 34.1263629 -0.41254187 31.89596689 -0.625 27.875 C-0.66222168 27.17157471 -0.69944336 26.46814941 -0.73779297 25.7434082 C-1.72781068 5.18343205 -1.72781068 5.18343205 0 0 Z " fill="#1F75BE" transform="translate(556,101)"/>
<path d="M0 0 C1.45792884 -0.05399736 2.91642712 -0.09279177 4.375 -0.125 C5.18710937 -0.14820313 5.99921875 -0.17140625 6.8359375 -0.1953125 C9 0 9 0 11 2 C10.6730244 4.61580479 10.17960932 6.64078137 9 9 C5.9375 9.625 5.9375 9.625 3 10 C2.87625 9.278125 2.7525 8.55625 2.625 7.8125 C2.0095069 5.04278106 1.11555626 2.6029646 0 0 Z " fill="#3392CD" transform="translate(359,133)"/>
<path d="M0 0 C0.33 0 0.66 0 1 0 C1.06058594 1.05960938 1.12117188 2.11921875 1.18359375 3.2109375 C1.26800127 4.59897221 1.35264917 5.98699232 1.4375 7.375 C1.47681641 8.07367188 1.51613281 8.77234375 1.55664062 9.4921875 C1.74280134 13.37360492 1.74280134 13.37360492 3 17 C0.82656827 23.40590406 0.82656827 23.40590406 -2 25.4375 C-4 26 -4 26 -7 26 C-6.6875 24.0625 -6.6875 24.0625 -6 22 C-5.01 21.67 -4.02 21.34 -3 21 C-3 18.03 -3 15.06 -3 12 C-2.67 12 -2.34 12 -2 12 C-1.67 14.31 -1.34 16.62 -1 19 C-0.67 12.73 -0.34 6.46 0 0 Z " fill="#0B65AA" transform="translate(431,179)"/>
<path d="M0 0 C0.99 0 1.98 0 3 0 C3.94137255 2.82411765 4.11725382 4.52918032 4.09765625 7.44921875 C4.09282227 8.72055664 4.09282227 8.72055664 4.08789062 10.01757812 C4.07951172 10.89865234 4.07113281 11.77972656 4.0625 12.6875 C4.05798828 13.58017578 4.05347656 14.47285156 4.04882812 15.39257812 C4.03704983 17.59511987 4.02060164 19.79752599 4 22 C3.01 22 2.02 22 1 22 C0.67 14.74 0.34 7.48 0 0 Z " fill="#127BC8" transform="translate(294,65)"/>
<path d="M0 0 C0.99 0 1.98 0 3 0 C3.33 0.66 3.66 1.32 4 2 C4.99 2 5.98 2 7 2 C6.34 4.64 5.68 7.28 5 10 C4.34 10 3.68 10 3 10 C3 10.66 3 11.32 3 12 C1.35 12 -0.3 12 -2 12 C-1.67 11.34 -1.34 10.68 -1 10 C-1.66 9.67 -2.32 9.34 -3 9 C-3 8.34 -3 7.68 -3 7 C-3.99 6.67 -4.98 6.34 -6 6 C-4.865625 5.731875 -3.73125 5.46375 -2.5625 5.1875 C-1.386875 4.795625 -0.21125 4.40375 1 4 C1.33 3.01 1.66 2.02 2 1 C1.34 0.67 0.68 0.34 0 0 Z " fill="#3EA2D8" transform="translate(568,96)"/>
<path d="M0 0 C0.99 0.33 1.98 0.66 3 1 C2.7834375 2.04800781 2.7834375 2.04800781 2.5625 3.1171875 C2.376875 4.02726563 2.19125 4.93734375 2 5.875 C1.814375 6.77992188 1.62875 7.68484375 1.4375 8.6171875 C0.93980405 10.92407903 0.93980405 10.92407903 1 13 C0.34 13 -0.32 13 -1 13 C-1 12.01 -1 11.02 -1 10 C-1.61875 9.87625 -2.2375 9.7525 -2.875 9.625 C-5 9 -5 9 -7 7 C-6.34 5.68 -5.68 4.36 -5 3 C-3.68 3 -2.36 3 -1 3 C-0.67 2.01 -0.34 1.02 0 0 Z " fill="#46B3DF" transform="translate(369,139)"/>
<path d="M0 0 C0.66 0 1.32 0 2 0 C2.24042276 4.08718695 1.42258812 7.17679443 0 11 C-1.60379341 11.05416188 -3.20811406 11.09286638 -4.8125 11.125 C-5.70582031 11.14820313 -6.59914063 11.17140625 -7.51953125 11.1953125 C-10 11 -10 11 -13 9 C-12.34 9 -11.68 9 -11 9 C-11 8.34 -11 7.68 -11 7 C-8.03 7 -5.06 7 -2 7 C-1.34 4.69 -0.68 2.38 0 0 Z " fill="#1975B7" transform="translate(571,133)"/>
<path d="M0 0 C0.33 1.32 0.66 2.64 1 4 C-0.13179687 3.98839844 -1.26359375 3.97679688 -2.4296875 3.96484375 C-3.91145669 3.95546546 -5.39322765 3.9463653 -6.875 3.9375 C-7.62136719 3.92912109 -8.36773438 3.92074219 -9.13671875 3.91210938 C-13.19845578 3.79311916 -13.19845578 3.79311916 -17 5 C-19.04055005 5.07065617 -21.08334257 5.08421976 -23.125 5.0625 C-24.22070312 5.05347656 -25.31640625 5.04445313 -26.4453125 5.03515625 C-27.70988281 5.01775391 -27.70988281 5.01775391 -29 5 C-26.26944208 2.26944208 -24.23628963 2.05470829 -20.43457031 1.88647461 C-19.49194336 1.89171143 -18.54931641 1.89694824 -17.578125 1.90234375 C-16.55332031 1.90556641 -15.52851562 1.90878906 -14.47265625 1.91210938 C-13.40917969 1.92048828 -12.34570312 1.92886719 -11.25 1.9375 C-10.17105469 1.94201172 -9.09210937 1.94652344 -7.98046875 1.95117188 C-5.32025617 1.96294273 -2.66015635 1.97938601 0 2 C0 1.34 0 0.68 0 0 Z " fill="#035EAB" transform="translate(637,97)"/>
<path d="M0 0 C1.41152344 -0.03867188 1.41152344 -0.03867188 2.8515625 -0.078125 C5.75999623 0.30006143 6.5973623 0.98321367 8.375 3.25 C8.045 4.24 7.715 5.23 7.375 6.25 C5.3125 6.9375 5.3125 6.9375 3.375 7.25 C3.045 5.93 2.715 4.61 2.375 3.25 C-1.915 2.92 -6.205 2.59 -10.625 2.25 C-10.625 1.92 -10.625 1.59 -10.625 1.25 C-7.04671504 0.44325939 -3.66734055 0.0606172 0 0 Z " fill="#15B9E8" transform="translate(625.625,81.75)"/>
<path d="M0 0 C2.26954631 3.40431947 2.36549949 5.16524202 2.625 9.1875 C2.69976562 10.27417969 2.77453125 11.36085937 2.8515625 12.48046875 C2.90054687 13.31191406 2.94953125 14.14335937 3 15 C3.99 15.33 4.98 15.66 6 16 C5.67 16.66 5.34 17.32 5 18 C1.31280332 16.35046464 0.17830779 15.43766457 -1.375 11.625 C-2.16652061 7.03418048 -1.44445751 4.33337253 0 0 Z " fill="#1689D6" transform="translate(358,160)"/>
<path d="M0 0 C0.99 0 1.98 0 3 0 C3 1.98 3 3.96 3 6 C16.86 6.495 16.86 6.495 31 7 C31 7.33 31 7.66 31 8 C20.77 8 10.54 8 0 8 C0 5.36 0 2.72 0 0 Z " fill="#A1D2F0" transform="translate(573,152)"/>
<path d="M0 0 C3.3 0 6.6 0 10 0 C10 0.99 10 1.98 10 3 C9.01 3.33 8.02 3.66 7 4 C7.66 5.32 8.32 6.64 9 8 C7.68 7.67 6.36 7.34 5 7 C5 7.66 5 8.32 5 9 C4.01 9 3.02 9 2 9 C1.22678118 6.01758453 0.58803797 3.02419525 0 0 Z " fill="#047FDE" transform="translate(220,163)"/>
<path d="M0 0 C0.66 0 1.32 0 2 0 C2.495 1.485 2.495 1.485 3 3 C-10.2 3 -23.4 3 -37 3 C-37 2.67 -37 2.34 -37 2 C-35.91468994 1.97494385 -34.82937988 1.9498877 -33.71118164 1.92407227 C-29.698684 1.83016245 -25.68636618 1.72990233 -21.67407227 1.62768555 C-19.93485712 1.58427427 -18.19559765 1.54260388 -16.45629883 1.50268555 C-13.96161512 1.44513232 -11.4671559 1.3813958 -8.97265625 1.31640625 C-8.19036148 1.29969376 -7.40806671 1.28298126 -6.60206604 1.26576233 C-3.00128219 1.49351269 -3.00128219 1.49351269 0 0 Z " fill="#0D62A1" transform="translate(613,148)"/>
<path d="M0 0 C7.26 0.33 14.52 0.66 22 1 C22 1.66 22 2.32 22 3 C14.41 3 6.82 3 -1 3 C-0.67 2.01 -0.34 1.02 0 0 Z " fill="#0269B2" transform="translate(530,234)"/>
<path d="M0 0 C-3.62498334 0.02893932 -7.24993713 0.04677792 -10.875 0.0625 C-12.42380859 0.07506836 -12.42380859 0.07506836 -14.00390625 0.08789062 C-14.99003906 0.09111328 -15.97617187 0.09433594 -16.9921875 0.09765625 C-18.35899658 0.10551147 -18.35899658 0.10551147 -19.75341797 0.11352539 C-22 0 -22 0 -24 -1 C-24 -1.66 -24 -2.32 -24 -3 C-6.82400499 -5.37540356 -6.82400499 -5.37540356 0 0 Z " fill="#1472BD" transform="translate(508,100)"/>
<path d="M0 0 C0.66 0.33 1.32 0.66 2 1 C2 1.66 2 2.32 2 3 C2.99 3 3.98 3 5 3 C5 3.66 5 4.32 5 5 C-1.93 5 -8.86 5 -16 5 C-16.33 4.34 -16.66 3.68 -17 3 C-15.85660156 2.95101562 -14.71320312 2.90203125 -13.53515625 2.8515625 C-12.04424527 2.77654811 -10.55336108 2.70099972 -9.0625 2.625 C-8.30775391 2.5940625 -7.55300781 2.563125 -6.77539062 2.53125 C-4.84492605 2.4273685 -2.92057919 2.22104386 -1 2 C-0.67 1.34 -0.34 0.68 0 0 Z " fill="#117CCA" transform="translate(632,94)"/>
<path d="M0 0 C2 2 2 2 2.22705078 4.33837891 C2.21657715 5.29147949 2.20610352 6.24458008 2.1953125 7.2265625 C2.18886719 8.2578125 2.18242187 9.2890625 2.17578125 10.3515625 C2.15902344 11.43179688 2.14226562 12.51203125 2.125 13.625 C2.11597656 14.71296875 2.10695313 15.8009375 2.09765625 16.921875 C2.07403409 19.61480152 2.04109556 22.30729255 2 25 C1.67 25 1.34 25 1 25 C0.90912109 23.71802734 0.90912109 23.71802734 0.81640625 22.41015625 C0.73261719 21.30542969 0.64882813 20.20070313 0.5625 19.0625 C0.48128906 17.96035156 0.40007812 16.85820313 0.31640625 15.72265625 C0.29581916 13.08890097 0.29581916 13.08890097 -1 12 C-1.09854655 10.35659133 -1.12972411 8.7088539 -1.125 7.0625 C-1.12757813 6.16660156 -1.13015625 5.27070312 -1.1328125 4.34765625 C-1 2 -1 2 0 0 Z " fill="#166EAD" transform="translate(430,102)"/>
<path d="M0 0 C7.92 0 15.84 0 24 0 C24 0.66 24 1.32 24 2 C24.66 2.33 25.32 2.66 26 3 C22.69564916 4.12377697 20.9493138 3.89554742 17.75 2.5625 C16.69039062 2.13130859 16.69039062 2.13130859 15.609375 1.69140625 C15.07828125 1.46324219 14.5471875 1.23507813 14 1 C14 1.66 14 2.32 14 3 C12.41590006 2.88512252 10.83271037 2.75765492 9.25 2.625 C8.36828125 2.55539063 7.4865625 2.48578125 6.578125 2.4140625 C4 2 4 2 0 0 Z " fill="#028DCA" transform="translate(532,95)"/>
<path d="M0 0 C0.99 1.485 0.99 1.485 2 3 C2 2.01 2 1.02 2 0 C4.64 0 7.28 0 10 0 C9.67 1.65 9.34 3.3 9 5 C7.35 5 5.7 5 4 5 C4 5.66 4 6.32 4 7 C3.01 7.33 2.02 7.66 1 8 C0.67 5.36 0.34 2.72 0 0 Z " fill="#346EB4" transform="translate(570,112)"/>
<path d="M0 0 C5.61 0 11.22 0 17 0 C17.33 0.99 17.66 1.98 18 3 C12.06 3 6.12 3 0 3 C0 2.01 0 1.02 0 0 Z " fill="#0C88C7" transform="translate(564,82)"/>
<path d="M0 0 C0.66 0.33 1.32 0.66 2 1 C1.49396008 3.16874252 1.00016187 4.99967627 0 7 C-2.6503226 7.28756297 -5.21684759 7.46773109 -7.875 7.5625 C-13.51760981 7.74411602 -13.51760981 7.74411602 -19 9 C-19.66 8.01 -20.32 7.02 -21 6 C-14.73 6 -8.46 6 -2 6 C-1.34 4.02 -0.68 2.04 0 0 Z " fill="#0182BF" transform="translate(632,90)"/>
<path d="M0 0 C2 0.8125 2 0.8125 3.25 2.625 C4 4.8125 4 4.8125 4 8.8125 C1.53721199 7.581106 0.57502313 6.03185077 -1 3.8125 C-1.66 4.4725 -2.32 5.1325 -3 5.8125 C-3.66 5.4825 -4.32 5.1525 -5 4.8125 C-5 5.4725 -5 6.1325 -5 6.8125 C-5.66 6.4825 -6.32 6.1525 -7 5.8125 C-3.53424658 -0.33133562 -3.53424658 -0.33133562 0 0 Z " fill="#19BEF0" transform="translate(415,46.1875)"/>
<path d="M0 0 C0.66 0.66 1.32 1.32 2 2 C1.01 3.485 1.01 3.485 0 5 C0.66 5.33 1.32 5.66 2 6 C-0.6855594 8.6855594 -3.37621328 9.06049974 -7 10 C-7.33 8.68 -7.66 7.36 -8 6 C-7.34 5.67 -6.68 5.34 -6 5 C-5.34 5.33 -4.68 5.66 -4 6 C-3.34 4.68 -2.68 3.36 -2 2 C-1.34 2 -0.68 2 0 2 C0 1.34 0 0.68 0 0 Z " fill="#0A56A0" transform="translate(668,183)"/>
<path d="M0 0 C2.64 0.33 5.28 0.66 8 1 C8 1.33 8 1.66 8 2 C10.31 2.33 12.62 2.66 15 3 C15 3.33 15 3.66 15 4 C7.74 4 0.48 4 -7 4 C-7 3.67 -7 3.34 -7 3 C-3.535 2.505 -3.535 2.505 0 2 C0 1.34 0 0.68 0 0 Z " fill="#037DD7" transform="translate(272,62)"/>
<path d="M0 0 C2.64 0.33 5.28 0.66 8 1 C7.67 1.99 7.34 2.98 7 4 C7.99 4 8.98 4 10 4 C10 5.98 10 7.96 10 10 C9.67 10 9.34 10 9 10 C9 8.35 9 6.7 9 5 C6.03 5 3.06 5 0 5 C0 3.35 0 1.7 0 0 Z " fill="#218ACE" transform="translate(359,128)"/>
<path d="M0 0 C2.32495277 0.38749213 4.65851268 0.72982839 7 1 C6.67 1.66 6.34 2.32 6 3 C2.37 3 -1.26 3 -5 3 C-5 2.34 -5 1.68 -5 1 C-5.99 1 -6.98 1 -8 1 C-8 0.34 -8 -0.32 -8 -1 C-4.45955307 -2.26444533 -3.24915871 -1.67099591 0 0 Z " fill="#198BD6" transform="translate(532,98)"/>
<path d="M0 0 C2.72869407 0.03287583 5.2966618 0.56397771 8 1 C6.68 2.32 5.36 3.64 4 5 C2.68 4.34 1.36 3.68 0 3 C-0.33 6.63 -0.66 10.26 -1 14 C-1.33 14 -1.66 14 -2 14 C-2.05389087 12.04196493 -2.09274217 10.08351091 -2.125 8.125 C-2.14820313 7.03445312 -2.17140625 5.94390625 -2.1953125 4.8203125 C-2 2 -2 2 0 0 Z " fill="#1A86D6" transform="translate(324,73)"/>
<path d="M0 0 C0 1.65 0 3.3 0 5 C-0.598125 4.79375 -1.19625 4.5875 -1.8125 4.375 C-4.28450846 3.69328085 -4.28450846 3.69328085 -7 6 C-10.1875 6.125 -10.1875 6.125 -13 6 C-5.25 -0.28378378 -5.25 -0.28378378 0 0 Z " fill="#106FC2" transform="translate(523,196)"/>
<path d="M0 0 C2.97 0.495 2.97 0.495 6 1 C6 1.99 6 2.98 6 4 C5.34 4 4.68 4 4 4 C4 4.66 4 5.32 4 6 C4.99 6 5.98 6 7 6 C6.67 6.66 6.34 7.32 6 8 C3.9375 8.625 3.9375 8.625 2 9 C2 7.35 2 5.7 2 4 C0.68 3.67 -0.64 3.34 -2 3 C-1.34 2.01 -0.68 1.02 0 0 Z " fill="#198CD2" transform="translate(384,184)"/>
<path d="M0 0 C0.66 0.33 1.32 0.66 2 1 C2 2.98 2 4.96 2 7 C2.66 7 3.32 7 4 7 C4 7.66 4 8.32 4 9 C3.01 9.33 2.02 9.66 1 10 C0.34 9.67 -0.32 9.34 -1 9 C-1 8.34 -1 7.68 -1 7 C-1.99 6.67 -2.98 6.34 -4 6 C-4.33 4.35 -4.66 2.7 -5 1 C-3.68 1 -2.36 1 -1 1 C-1 2.65 -1 4.3 -1 6 C-0.34 6 0.32 6 1 6 C0.67 4.02 0.34 2.04 0 0 Z " fill="#067FD9" transform="translate(242,162)"/>
<path d="M0 0 C-0.75 4.75 -0.75 4.75 -3 7 C-3.16687448 9.58354218 -3.16687448 9.58354218 -3 12 C-3.66 12 -4.32 12 -5 12 C-5.24954005 10.56589632 -5.47392642 9.12739928 -5.6875 7.6875 C-5.81511719 6.88699219 -5.94273437 6.08648437 -6.07421875 5.26171875 C-6 3 -6 3 -4.70703125 1.20703125 C-3 0 -3 0 0 0 Z " fill="#0FB3DA" transform="translate(527,83)"/>
<path d="M0 0 C0.66 0 1.32 0 2 0 C3.1875 3.25 3.1875 3.25 4 7 C2.75 9.4375 2.75 9.4375 1 11 C0.34 11 -0.32 11 -1 11 C-1.02688151 9.35425434 -1.04634123 7.70838587 -1.0625 6.0625 C-1.07410156 5.14597656 -1.08570313 4.22945312 -1.09765625 3.28515625 C-1 1 -1 1 0 0 Z " fill="#1E8CD3" transform="translate(357,138)"/>
<path d="M0 0 C0.66 1.98 1.32 3.96 2 6 C-1.3 5.67 -4.6 5.34 -8 5 C-8.33 4.01 -8.66 3.02 -9 2 C-5.62902617 0.50178941 -3.79557881 0 0 0 Z " fill="#3C7CB9" transform="translate(568,122)"/>
<path d="M0 0 C0.8971875 0.5259375 0.8971875 0.5259375 1.8125 1.0625 C-1.1875 3.0625 -1.1875 3.0625 -3.1875 3.0625 C-3.5175 4.0525 -3.8475 5.0425 -4.1875 6.0625 C-3.5275 6.3925 -2.8675 6.7225 -2.1875 7.0625 C-3.1775 9.0425 -4.1675 11.0225 -5.1875 13.0625 C-5.8475 12.7325 -6.5075 12.4025 -7.1875 12.0625 C-6.5275 8.1025 -5.8675 4.1425 -5.1875 0.0625 C-2.1875 -0.9375 -2.1875 -0.9375 0 0 Z " fill="#134E96" transform="translate(579.1875,116.9375)"/>
<path d="M0 0 C1.67542976 0.28604898 3.34385343 0.61781233 5 1 C3.6045933 3.79081339 1.98580959 4.03903006 -0.875 5.1875 C-1.75929688 5.55230469 -2.64359375 5.91710937 -3.5546875 6.29296875 C-6 7 -6 7 -9 6 C-9 5.34 -9 4.68 -9 4 C-8.43410156 3.79503906 -7.86820313 3.59007812 -7.28515625 3.37890625 C-6.55167969 3.10949219 -5.81820312 2.84007812 -5.0625 2.5625 C-4.33160156 2.29566406 -3.60070312 2.02882812 -2.84765625 1.75390625 C-1.01694322 1.14613052 -1.01694322 1.14613052 0 0 Z " fill="#1159B0" transform="translate(653,196)"/>
<path d="M0 0 C1.65 0 3.3 0 5 0 C5.33 0.66 5.66 1.32 6 2 C5.01 2.33 4.02 2.66 3 3 C3 4.32 3 5.64 3 7 C1.68 7.33 0.36 7.66 -1 8 C-1.33 6.02 -1.66 4.04 -2 2 C-1.34 2 -0.68 2 0 2 C0 1.34 0 0.68 0 0 Z " fill="#1C74B9" transform="translate(596,98)"/>
<path d="M0 0 C3.3 1.65 6.6 3.3 10 5 C9.34 6.32 8.68 7.64 8 9 C7.34 8.67 6.68 8.34 6 8 C6 7.34 6 6.68 6 6 C4.35 5.67 2.7 5.34 1 5 C0.67 3.35 0.34 1.7 0 0 Z " fill="#10519B" transform="translate(650,101)"/>
<path d="M0 0 C1.875 1.5625 1.875 1.5625 3 3 C-2.6932495 4.18609365 -6.42567486 3.66251802 -12 2 C-12 1.67 -12 1.34 -12 1 C-7.56980483 -0.79317423 -4.6336848 -1.33862005 0 0 Z " fill="#0CA3D5" transform="translate(595,94)"/>
<path d="M0 0 C2.875 -0.1875 2.875 -0.1875 6 0 C6.66 0.99 7.32 1.98 8 3 C8.99 3.66 9.98 4.32 11 5 C8.83032311 5.95465783 7.43671207 6.14401212 5.17578125 5.3984375 C3.4315257 4.64129615 1.71372869 3.82390802 0 3 C0 2.01 0 1.02 0 0 Z " fill="#0854A6" transform="translate(596,196)"/>
<path d="M0 0 C1.125 5.75 1.125 5.75 0 8 C-0.99 8 -1.98 8 -3 8 C-3.33 8.66 -3.66 9.32 -4 10 C-4 7.03 -4 4.06 -4 1 C-2 0 -2 0 0 0 Z " fill="#188CD2" transform="translate(360,149)"/>
<path d="M0 0 C3 1 3 1 3 1 Z M0 1 C-1.32 1.33 -2.64 1.66 -4 2 C-4 3.98 -4 5.96 -4 8 C-4.66 8 -5.32 8 -6 8 C-6.33 7.01 -6.66 6.02 -7 5 C-9.50447516 3.78130071 -9.50447516 3.78130071 -12 3 C-8.09971775 0.39981184 -4.52565431 0.84914486 0 1 Z " fill="#2C82BA" transform="translate(576,149)"/>
<path d="M0 0 C1.3303125 0.11794922 1.3303125 0.11794922 2.6875 0.23828125 C5 0.6875 5 0.6875 7 2.6875 C1.25 2.8125 1.25 2.8125 -1 1.6875 C-1 2.3475 -1 3.0075 -1 3.6875 C-3.4375 3.3125 -3.4375 3.3125 -6 2.6875 C-6.33 2.0275 -6.66 1.3675 -7 0.6875 C-4.42121756 -0.60189122 -2.85485837 -0.27801673 0 0 Z " fill="#119FE1" transform="translate(423,86.3125)"/>
<path d="M0 0 C1.670625 0.061875 1.670625 0.061875 3.375 0.125 C3.045 1.115 2.715 2.105 2.375 3.125 C-0.595 2.63 -0.595 2.63 -3.625 2.125 C-3.955 5.425 -4.285 8.725 -4.625 12.125 C-6.625 10.125 -6.625 10.125 -6.671875 8.25 C-6.57390625 7.54875 -6.4759375 6.8475 -6.375 6.125 C-6.28734375 5.42375 -6.1996875 4.7225 -6.109375 4 C-5.13501913 0.22829987 -3.75715367 0.12955702 0 0 Z " fill="#1E78CE" transform="translate(311.625,99.875)"/>
<path d="M0 0 C-2.125 2.5625 -2.125 2.5625 -5 5 C-8.3125 4.8125 -8.3125 4.8125 -11 4 C-7.65667474 -0.27945633 -5.29105716 -0.4070044 0 0 Z " fill="#116CC7" transform="translate(483,99)"/>
<path d="M0 0 C1.98 0 3.96 0 6 0 C6 0.66 6 1.32 6 2 C6.99 2.33 7.98 2.66 9 3 C8.01 3.495 8.01 3.495 7 4 C7 4.66 7 5.32 7 6 C6.401875 5.690625 5.80375 5.38125 5.1875 5.0625 C2.91043228 3.89790296 2.91043228 3.89790296 0 3 C0 2.01 0 1.02 0 0 Z " fill="#248ECA" transform="translate(559,103)"/>
<path d="M0 0 C4.62 0 9.24 0 14 0 C14 0.99 14 1.98 14 3 C8.78020872 3.1799928 4.92737019 2.97094808 0 1 C0 0.67 0 0.34 0 0 Z " fill="#0959AF" transform="translate(402,98)"/>
<path d="M0 0 C0 3.96 0 7.92 0 12 C-0.66 12 -1.32 12 -2 12 C-2 9.03 -2 6.06 -2 3 C-2.99 3.33 -3.98 3.66 -5 4 C-4.67 3.01 -4.34 2.02 -4 1 C-2 0 -2 0 0 0 Z " fill="#37A8FC" transform="translate(185,126)"/>
<path d="M0 0 C1.258125 -0.04125 2.51625 -0.0825 3.8125 -0.125 C4.52019531 -0.14820312 5.22789062 -0.17140625 5.95703125 -0.1953125 C8 0 8 0 11 2 C10.67 3.65 10.34 5.3 10 7 C9.01 6.67 8.02 6.34 7 6 C7.33 4.68 7.66 3.36 8 2 C5.36 2 2.72 2 0 2 C0 1.34 0 0.68 0 0 Z " fill="#2F6FB0" transform="translate(560,127)"/>
<path d="M0 0 C0.33 0.66 0.66 1.32 1 2 C2.98 2 4.96 2 7 2 C7 2.33 7 2.66 7 3 C6.40832031 3.18175781 5.81664062 3.36351563 5.20703125 3.55078125 C0.787492 4.95667057 -3.12540125 6.37527181 -7 9 C-7.33 7.68 -7.66 6.36 -8 5 C-7.01 5.33 -6.02 5.66 -5 6 C-5 5.34 -5 4.68 -5 4 C-4.360625 3.71125 -3.72125 3.4225 -3.0625 3.125 C-0.84793921 2.17176549 -0.84793921 2.17176549 0 0 Z " fill="#428AC3" transform="translate(617,124)"/>
<path d="M0 0 C1.65 0 3.3 0 5 0 C5 0.66 5 1.32 5 2 C5.99 2 6.98 2 8 2 C8 3.65 8 5.3 8 7 C7.67 5.68 7.34 4.36 7 3 C6.2575 3.350625 5.515 3.70125 4.75 4.0625 C1.8677274 5.04509293 0.78823655 5.0326802 -2 4 C-1.34 4 -0.68 4 0 4 C0 2.68 0 1.36 0 0 Z " fill="#1A8AD3" transform="translate(372,172)"/>
<path d="M0 0 C0.33 0 0.66 0 1 0 C2.26305335 5.07476794 3.27036084 9.72796354 3 15 C2.01 15.33 1.02 15.66 0 16 C0 10.72 0 5.44 0 0 Z " fill="#034DA2" transform="translate(557,105)"/>
<path d="M0 0 C0.86625 0.2784375 0.86625 0.2784375 1.75 0.5625 C4.20692525 1.04023546 5.64397534 0.75729364 8 0 C7.34 1.32 6.68 2.64 6 4 C4.68 3.67 3.36 3.34 2 3 C1.67 3.99 1.34 4.98 1 6 C0.01 6 -0.98 6 -2 6 C-1.34 4.02 -0.68 2.04 0 0 Z " fill="#0E75EE" transform="translate(127,22)"/>
<path d="M0 0 C0.99 0.33 1.98 0.66 3 1 C2.67 1.99 2.34 2.98 2 4 C2.99 4.33 3.98 4.66 5 5 C5.66 5.66 6.32 6.32 7 7 C5.35 7.66 3.7 8.32 2 9 C0.14223235 5.86501708 -0.20140476 3.62528568 0 0 Z " fill="#2D99C9" transform="translate(360,149)"/>
<path d="M0 0 C2.49361571 1.20381448 4.68143083 2.45428722 7 4 C6.34 5.32 5.68 6.64 5 8 C0.125 4.375 0.125 4.375 -1 1 C-0.67 0.67 -0.34 0.34 0 0 Z " fill="#0E599A" transform="translate(661,108)"/>
<path d="M0 0 C0.99 0.33 1.98 0.66 3 1 C2.01 1.495 2.01 1.495 1 2 C1 2.99 1 3.98 1 5 C0.34 5 -0.32 5 -1 5 C-0.835 5.886875 -0.67 6.77375 -0.5 7.6875 C-0.07004243 10.53596892 0.08441035 13.13004802 0 16 C-2.34391133 12.48413301 -3.35906449 9.8979123 -2.5625 5.6875 C-2.376875 5.130625 -2.19125 4.57375 -2 4 C-1.34 4 -0.68 4 0 4 C0 2.68 0 1.36 0 0 Z " fill="#3B8ECC" transform="translate(573,102)"/>
<path d="M0 0 C1.45792884 -0.05399736 2.91642712 -0.09279177 4.375 -0.125 C5.18710937 -0.14820312 5.99921875 -0.17140625 6.8359375 -0.1953125 C9 0 9 0 11 2 C9.68 2 8.36 2 7 2 C7 2.66 7 3.32 7 4 C4.03 4 1.06 4 -2 4 C-2 3.34 -2 2.68 -2 2 C-0.02 2 1.96 2 4 2 C2.68 1.34 1.36 0.68 0 0 Z " fill="#2AC9F1" transform="translate(424,86)"/>
<path d="M0 0 C1 3 1 3 0 6 C-2.97 5.505 -2.97 5.505 -6 5 C-6 4.01 -6 3.02 -6 2 C-4.02 1.34 -2.04 0.68 0 0 Z " fill="#0F5FE9" transform="translate(141,0)"/>
<path d="M0 0 C0.33 0 0.66 0 1 0 C1.06058594 1.05960938 1.12117188 2.11921875 1.18359375 3.2109375 C1.26800127 4.59897221 1.35264917 5.98699232 1.4375 7.375 C1.47681641 8.07367188 1.51613281 8.77234375 1.55664062 9.4921875 C1.74280134 13.37360492 1.74280134 13.37360492 3 17 C2.0625 19.125 2.0625 19.125 1 21 C0.67 21 0.34 21 0 21 C0 14.07 0 7.14 0 0 Z " fill="#156393" transform="translate(431,179)"/>
<path d="M0 0 C0.66 0 1.32 0 2 0 C3.97094808 4.92737019 4.1799928 8.78020872 4 14 C3.67 14 3.34 14 3 14 C2.67 11.69 2.34 9.38 2 7 C1.01 7 0.02 7 -1 7 C-0.67 4.69 -0.34 2.38 0 0 Z " fill="#0D4C89" transform="translate(680,137)"/>
<path d="M0 0 C0.99 0.33 1.98 0.66 3 1 C3.875 2.875 3.875 2.875 4 5 C2.5625 6.75 2.5625 6.75 1 8 C0.34 7.67 -0.32 7.34 -1 7 C-0.67 4.69 -0.34 2.38 0 0 Z " fill="#0C77C3" transform="translate(444,137)"/>
<path d="M0 0 C0 3.39593478 -0.52165948 4.06619881 -2.5 6.6875 C-2.9640625 7.31011719 -3.428125 7.93273437 -3.90625 8.57421875 C-4.2671875 9.04472656 -4.628125 9.51523438 -5 10 C-7 7 -7 7 -6.625 4.8125 C-6.41875 4.214375 -6.2125 3.61625 -6 3 C-5.38125 2.87625 -4.7625 2.7525 -4.125 2.625 C-1.80879168 2.12802644 -1.80879168 2.12802644 0 0 Z " fill="#1568B0" transform="translate(582,116)"/>
<path d="M0 0 C4.95 0.99 4.95 0.99 10 2 C9.01 3.485 9.01 3.485 8 5 C5.69 4.67 3.38 4.34 1 4 C0.67 2.68 0.34 1.36 0 0 Z " fill="#0F5EA5" transform="translate(639,98)"/>
<path d="M0 0 C0.99 0 1.98 0 3 0 C3.33 0.66 3.66 1.32 4 2 C4.99 2 5.98 2 7 2 C6.34 4.31 5.68 6.62 5 9 C4.01 8.67 3.02 8.34 2 8 C0.82244087 5.05610218 0.96651304 4.10046087 2 1 C1.34 0.67 0.68 0.34 0 0 Z " fill="#39ADE2" transform="translate(568,96)"/>
<path d="M0 0 C3 1 3 1 4.75 3.8125 C5.98589446 6.96403086 6.28222189 7.96929372 5 11 C0.57142857 3.57142857 0.57142857 3.57142857 0 0 Z " fill="#1BC0E9" transform="translate(430,76)"/>
<path d="M0 0 C0.33 0 0.66 0 1 0 C1.33 4.95 1.66 9.9 2 15 C1.01 15 0.02 15 -1 15 C-1.18451025 4.44191344 -1.18451025 4.44191344 0 0 Z " fill="#1287DF" transform="translate(296,72)"/>
<path d="M0 0 C2.64 0.33 5.28 0.66 8 1 C7.67 2.32 7.34 3.64 7 5 C4.6568787 4.74438677 2.32156597 4.40729228 0 4 C-0.33 3.34 -0.66 2.68 -1 2 C-0.67 1.34 -0.34 0.68 0 0 Z " fill="#0A5CA8" transform="translate(608,200)"/>
<path d="M0 0 C3 1 3 1 4 3 C4.99 3.33 5.98 3.66 7 4 C7 5.32 7 6.64 7 8 C4.24542282 7.62005832 3.17979426 7.1926367 1.25 5.125 C0 3 0 3 0 0 Z " fill="#0D64A6" transform="translate(576,176)"/>
<path d="M0 0 C0.33 0.66 0.66 1.32 1 2 C1.66 2 2.32 2 3 2 C2.34 4.64 1.68 7.28 1 10 C0.34 10 -0.32 10 -1 10 C-1.66 7.36 -2.32 4.72 -3 2 C-2.01 1.34 -1.02 0.68 0 0 Z " fill="#0971E0" transform="translate(237,170)"/>
<path d="M0 0 C0.99 0.33 1.98 0.66 3 1 C3.62457273 4.43515002 4 7.49064814 4 11 C3.34 11 2.68 11 2 11 C1.34 7.37 0.68 3.74 0 0 Z " fill="#1378B9" transform="translate(443,159)"/>
<path d="M0 0 C1.98 0.99 1.98 0.99 4 2 C4 4.31 4 6.62 4 9 C3.01 8.34 2.02 7.68 1 7 C0.3125 3.375 0.3125 3.375 0 0 Z " fill="#0958C0" transform="translate(519,199)"/>
<path d="M0 0 C0.66 0.66 1.32 1.32 2 2 C4.65537372 2.56520003 7.29144713 2.73788198 10 3 C10 3.66 10 4.32 10 5 C3.375 6.25 3.375 6.25 0 4 C0 2.68 0 1.36 0 0 Z " fill="#0C64DB" transform="translate(284,200)"/>
<path d="M0 0 C-2.1875 2.0625 -2.1875 2.0625 -5 4 C-7.8125 3.75 -7.8125 3.75 -10 3 C-10 2.34 -10 1.68 -10 1 C-3.71428571 -1.42857143 -3.71428571 -1.42857143 0 0 Z " fill="#135FAB" transform="translate(667,192)"/>
<path d="M0 0 C4.29 0 8.58 0 13 0 C12.67 0.66 12.34 1.32 12 2 C9.71484375 2.4140625 9.71484375 2.4140625 6.9375 2.625 C5.55884766 2.73714844 5.55884766 2.73714844 4.15234375 2.8515625 C3.44207031 2.90054688 2.73179687 2.94953125 2 3 C1.34 2.01 0.68 1.02 0 0 Z " fill="#078CF2" transform="translate(187,97)"/>
<path d="M0 0 C0.33 0 0.66 0 1 0 C1.33 2.31 1.66 4.62 2 7 C0.02 7.33 -1.96 7.66 -4 8 C-3.34 6.02 -2.68 4.04 -2 2 C-1.34 2 -0.68 2 0 2 C0 1.34 0 0.68 0 0 Z " fill="#34A2CA" transform="translate(366,135)"/>
<path d="M0 0 C0.99 0.33 1.98 0.66 3 1 C3.33 4.63 3.66 8.26 4 12 C2 11 2 11 0.875 7.6875 C0 4 0 4 0 0 Z " fill="#3E89C1" transform="translate(570,159)"/>
<path d="M0 0 C3.96 0 7.92 0 12 0 C11.67 0.99 11.34 1.98 11 3 C6.78121808 3.19622241 3.82989106 2.80230168 0 1 C0 0.67 0 0.34 0 0 Z " fill="#0663AC" transform="translate(556,150)"/>
<path d="M0 0 C0.33 0.66 0.66 1.32 1 2 C2.64363134 2.72159424 4.31050386 3.39351421 6 4 C4.68 4.33 3.36 4.66 2 5 C1.67 6.32 1.34 7.64 1 9 C0.34 8.67 -0.32 8.34 -1 8 C-1.04241723 5.66705225 -1.04092937 3.33297433 -1 1 C-0.67 0.67 -0.34 0.34 0 0 Z " fill="#1964AD" transform="translate(558,121)"/>
<path d="M0 0 C-0.66 1.65 -1.32 3.3 -2 5 C-3.98 4.34 -5.96 3.68 -8 3 C-7 1 -7 1 -4.5625 -0.1875 C-2 -1 -2 -1 0 0 Z " fill="#1893FC" transform="translate(46,240)"/>
<path d="M0 0 C1.65 0 3.3 0 5 0 C5.103125 0.5775 5.20625 1.155 5.3125 1.75 C6.09792798 4.32049158 7.30504197 5.93657284 9 8 C5.18284914 6.44486447 2.77292558 4.00400272 0 1 C0 0.67 0 0.34 0 0 Z " fill="#0465AE" transform="translate(583,185)"/>
<path d="M0 0 C1.67542976 0.28604898 3.34385343 0.61781233 5 1 C2.63707344 3.52588702 1.33537489 4.88820837 -2 6 C-1.125 1.125 -1.125 1.125 0 0 Z " fill="#187AB9" transform="translate(519,166)"/>
<path d="M0 0 C2.625 -0.1875 2.625 -0.1875 5 0 C3.35 1.65 1.7 3.3 0 5 C0.33 5.99 0.66 6.98 1 8 C0.01 8.33 -0.98 8.66 -2 9 C-2.25 3.375 -2.25 3.375 0 0 Z " fill="#1787CD" transform="translate(382,117)"/>
<path d="M0 0 C2 1.75 2 1.75 4 4 C4 5.32 4 6.64 4 8 C3.34 8 2.68 8 2 8 C0.61061923 6.03852126 -0.7260411 4.03833424 -2 2 C-1.34 1.34 -0.68 0.68 0 0 Z " fill="#1B80C7" transform="translate(521,104)"/>
<path d="M0 0 C-1 1 -1 1 -4.5625 1.0625 C-5.696875 1.041875 -6.83125 1.02125 -8 1 C-8.33 1.99 -8.66 2.98 -9 4 C-9.66 2.68 -10.32 1.36 -11 0 C-3.375 -2.25 -3.375 -2.25 0 0 Z " fill="#065AA6" transform="translate(643,202)"/>
<path d="M0 0 C0.99 0.495 0.99 0.495 2 1 C2 1.99 2 2.98 2 4 C2.66 4.33 3.32 4.66 4 5 C3.34 5 2.68 5 2 5 C2 7.31 2 9.62 2 12 C-0.60018816 8.09971775 -0.15085514 4.52565431 0 0 Z " fill="#0F76BC" transform="translate(559,106)"/>
<path d="M0 0 C0.66 0 1.32 0 2 0 C2.125 2.375 2.125 2.375 2 5 C1.34 5.66 0.68 6.32 0 7 C-0.99 6.67 -1.98 6.34 -3 6 C-2.01 4.02 -1.02 2.04 0 0 Z " fill="#1396FA" transform="translate(61,182)"/>
<path d="M0 0 C0.66 0 1.32 0 2 0 C0.79157144 4.43090471 -0.51668565 6.98112756 -4 10 C-3.43697042 6.05879291 -2.3208055 3.2491277 0 0 Z " fill="#1A71AD" transform="translate(677,173)"/>
<path d="M0 0 C4.55384615 -0.36923077 4.55384615 -0.36923077 6.8125 1.5 C7.204375 1.995 7.59625 2.49 8 3 C5.69 3.33 3.38 3.66 1 4 C0.67 2.68 0.34 1.36 0 0 Z " fill="#31A2D8" transform="translate(362,159)"/>
<path d="M0 0 C1.0625 1.875 1.0625 1.875 2 4 C1.67 4.66 1.34 5.32 1 6 C-0.9375 5.6875 -0.9375 5.6875 -3 5 C-3.33 4.01 -3.66 3.02 -4 2 C-2.68 1.34 -1.36 0.68 0 0 Z " fill="#0975CA" transform="translate(453,122)"/>
<path d="M0 0 C1.98 0 3.96 0 6 0 C5.67 0.99 5.34 1.98 5 3 C3.35 3.33 1.7 3.66 0 4 C0 2.68 0 1.36 0 0 Z " fill="#195FA1" transform="translate(579,113)"/>
<path d="M0 0 C2.46254526 2.1413437 3.69050349 3.69870394 4 7 C3.01 8.485 3.01 8.485 2 10 C0.39644899 6.49223216 -0.22036864 3.85645121 0 0 Z " fill="#228EE2" transform="translate(216,162)"/>
<path d="M0 0 C0.99 0.33 1.98 0.66 3 1 C3 2.32 3 3.64 3 5 C-0.3 5 -3.6 5 -7 5 C-7 4.67 -7 4.34 -7 4 C-3.535 3.505 -3.535 3.505 0 3 C0 2.01 0 1.02 0 0 Z " fill="#32A0ED" transform="translate(183,138)"/>
<path d="M0 0 C1.9375 0.125 1.9375 0.125 4 1 C5.25 3.5625 5.25 3.5625 6 6 C3.11424181 5.60196439 2.17810487 5.20990931 0.25 2.9375 C-0.1625 2.298125 -0.575 1.65875 -1 1 C-0.67 0.67 -0.34 0.34 0 0 Z " fill="#2A77B6" transform="translate(640,129)"/>
<path d="M0 0 C0.66 0.33 1.32 0.66 2 1 C0.84826645 3.46800047 -0.04783565 5.04783565 -2 7 C-2.99 6.67 -3.98 6.34 -5 6 C-3.625 4 -3.625 4 -2 2 C-1.34 2 -0.68 2 0 2 C0 1.34 0 0.68 0 0 Z " fill="#0A6ECF" transform="translate(154,112)"/>
<path d="M0 0 C4.62 0 9.24 0 14 0 C10 2 10 2 7 3 C7 2.34 7 1.68 7 1 C4.69 1 2.38 1 0 1 C0 0.67 0 0.34 0 0 Z " fill="#016FC4" transform="translate(342,73)"/>
<path d="M0 0 C0 0.33 0 0.66 0 1 C-5.37625234 1.84888195 -9.65370398 2.0024305 -15 1 C-15 0.67 -15 0.34 -15 0 C-9.77254141 -1.2063366 -5.23471686 -0.75612577 0 0 Z " fill="#0469DB" transform="translate(340,73)"/>
<path d="M0 0 C3.3 0 6.6 0 10 0 C10 0.66 10 1.32 10 2 C8.71073008 2.36279456 7.41846728 2.71496698 6.125 3.0625 C5.04605469 3.35833984 5.04605469 3.35833984 3.9453125 3.66015625 C2 4 2 4 0 3 C0 2.01 0 1.02 0 0 Z " fill="#2A68AB" transform="translate(559,120)"/>
<path d="M0 0 C1.32 0.33 2.64 0.66 4 1 C1.53846154 4.81538462 1.53846154 4.81538462 -1.1875 5.75 C-1.785625 5.8325 -2.38375 5.915 -3 6 C-2 4 -1 2 0 0 Z " fill="#0D63AA" transform="translate(456,112)"/>
<path d="M0 0 C2.96404505 2.80804268 5.44499019 5.18315774 7 9 C6.34 9 5.68 9 5 9 C2.38953552 6.15222057 0.57323431 3.86933162 0 0 Z " fill="#0E54D6" transform="translate(235,111)"/>
<path d="M0 0 C1.98 0.495 1.98 0.495 4 1 C3.34 2.32 2.68 3.64 2 5 C1.01 5 0.02 5 -1 5 C-0.67 3.35 -0.34 1.7 0 0 Z " fill="#3267A5" transform="translate(576,112)"/>
<path d="M0 0 C0.99 0.33 1.98 0.66 3 1 C1.68 1.99 0.36 2.98 -1 4 C-0.01 4 0.98 4 2 4 C2 4.66 2 5.32 2 6 C0.68 6 -0.64 6 -2 6 C-2 4.35 -2 2.7 -2 1 C-1.34 0.67 -0.68 0.34 0 0 Z " fill="#055EAD" transform="translate(606,98)"/>
<path d="M0 0 C0.66 0.66 1.32 1.32 2 2 C1.67 2.66 1.34 3.32 1 4 C-3.29 4 -7.58 4 -12 4 C-12 3.67 -12 3.34 -12 3 C-11.21753906 2.95101562 -10.43507813 2.90203125 -9.62890625 2.8515625 C-8.61699219 2.77679688 -7.60507812 2.70203125 -6.5625 2.625 C-5.55316406 2.55539063 -4.54382813 2.48578125 -3.50390625 2.4140625 C-2.26447266 2.20910156 -2.26447266 2.20910156 -1 2 C-0.67 1.34 -0.34 0.68 0 0 Z " fill="#0E92D6" transform="translate(632,94)"/>
<path d="M0 0 C2.64 0.33 5.28 0.66 8 1 C6 3 6 3 2.875 3.125 C1.451875 3.063125 1.451875 3.063125 0 3 C0 2.01 0 1.02 0 0 Z " fill="#0E6FC4" transform="translate(272,62)"/>
<path d="M0 0 C0.33 1.32 0.66 2.64 1 4 C1.66 4 2.32 4 3 4 C3 4.66 3 5.32 3 6 C1.68 6.33 0.36 6.66 -1 7 C-1.04254356 5.00045254 -1.04080783 2.99958364 -1 1 C-0.67 0.67 -0.34 0.34 0 0 Z " fill="#09A5F5" transform="translate(36,248)"/>
<path d="M0 0 C0.99 0.33 1.98 0.66 3 1 C3.33 2.65 3.66 4.3 4 6 C3.01 6.33 2.02 6.66 1 7 C0.67 4.69 0.34 2.38 0 0 Z " fill="#0783F2" transform="translate(43,232)"/>
<path d="M0 0 C2.475 0.495 2.475 0.495 5 1 C4.01 2.485 4.01 2.485 3 4 C3 4.99 3 5.98 3 7 C1.5 5.75 1.5 5.75 0 4 C0 2.68 0 1.36 0 0 Z " fill="#0880C0" transform="translate(455,183)"/>
<path d="M0 0 C0.66 0 1.32 0 2 0 C1.34 2.97 0.68 5.94 0 9 C-0.33 9 -0.66 9 -1 9 C-1.125 2.25 -1.125 2.25 0 0 Z " fill="#1E5AA1" transform="translate(680,164)"/>
<path d="M0 0 C0.33 0.66 0.66 1.32 1 2 C1.66 2.33 2.32 2.66 3 3 C2.01 3.99 1.02 4.98 0 6 C-0.99 5.67 -1.98 5.34 -3 5 C-2.01 3.35 -1.02 1.7 0 0 Z " fill="#0D60BF" transform="translate(452,118)"/>
<path d="M0 0 C1.65 0 3.3 0 5 0 C5 0.66 5 1.32 5 2 C4.34 2 3.68 2 3 2 C2.67 2.66 2.34 3.32 2 4 C0.68 3.67 -0.64 3.34 -2 3 C-1.34 3 -0.68 3 0 3 C0 2.01 0 1.02 0 0 Z " fill="#2789BE" transform="translate(591,98)"/>
<path d="M0 0 C0.66 1.32 1.32 2.64 2 4 C1.34 4 0.68 4 0 4 C0 2.68 0 1.36 0 0 Z M-3 3 C-2.01 3.33 -1.02 3.66 0 4 C-1.485 5.485 -1.485 5.485 -3 7 C-3.99 6.34 -4.98 5.68 -6 5 C-5.01 5 -4.02 5 -3 5 C-3 4.34 -3 3.68 -3 3 Z " fill="#08A0E5" transform="translate(413,48)"/>
<path d="" fill="#0017B2" transform="translate(0,0)"/>
</svg>
